<?xml version="1.0" encoding="utf-8" standalone="no"?>
<!DOCTYPE svg PUBLIC "-//W3C//DTD SVG 1.1//EN"
  "http://www.w3.org/Graphics/SVG/1.1/DTD/svg11.dtd">
<!-- Created with matplotlib (https://matplotlib.org/) -->
<svg height="248.518125pt" version="1.1" viewBox="0 0 384.828125 248.518125" width="384.828125pt" xmlns="http://www.w3.org/2000/svg" xmlns:xlink="http://www.w3.org/1999/xlink">
 <defs>
  <style type="text/css">
*{stroke-linecap:butt;stroke-linejoin:round;}
  </style>
 </defs>
 <g id="figure_1">
  <g id="patch_1">
   <path d="M 0 248.518125 
L 384.828125 248.518125 
L 384.828125 0 
L 0 0 
z
" style="fill:none;"/>
  </g>
  <g id="axes_1">
   <g id="patch_2">
    <path d="M 42.828125 224.64 
L 377.628125 224.64 
L 377.628125 7.2 
L 42.828125 7.2 
z
" style="fill:#ffffff;"/>
   </g>
   <g id="patch_3">
    <path clip-path="url(#pd5e3e5fb08)" d="M 62.583304 224.64 
L 64.082429 224.64 
L 64.082429 220.157369 
L 62.583304 220.157369 
z
" style="fill:#1f77b4;"/>
   </g>
   <g id="patch_4">
    <path clip-path="url(#pd5e3e5fb08)" d="M 64.082429 224.64 
L 65.581553 224.64 
L 65.581553 218.663159 
L 64.082429 218.663159 
z
" style="fill:#1f77b4;"/>
   </g>
   <g id="patch_5">
    <path clip-path="url(#pd5e3e5fb08)" d="M 65.581553 224.64 
L 67.080678 224.64 
L 67.080678 208.203688 
L 65.581553 208.203688 
z
" style="fill:#1f77b4;"/>
   </g>
   <g id="patch_6">
    <path clip-path="url(#pd5e3e5fb08)" d="M 67.080678 224.64 
L 68.579802 224.64 
L 68.579802 206.709478 
L 67.080678 206.709478 
z
" style="fill:#1f77b4;"/>
   </g>
   <g id="patch_7">
    <path clip-path="url(#pd5e3e5fb08)" d="M 68.579802 224.64 
L 70.078926 224.64 
L 70.078926 205.215267 
L 68.579802 205.215267 
z
" style="fill:#1f77b4;"/>
   </g>
   <g id="patch_8">
    <path clip-path="url(#pd5e3e5fb08)" d="M 70.078926 224.64 
L 71.578051 224.64 
L 71.578051 208.203688 
L 70.078926 208.203688 
z
" style="fill:#1f77b4;"/>
   </g>
   <g id="patch_9">
    <path clip-path="url(#pd5e3e5fb08)" d="M 71.578051 224.64 
L 73.077175 224.64 
L 73.077175 205.215267 
L 71.578051 205.215267 
z
" style="fill:#1f77b4;"/>
   </g>
   <g id="patch_10">
    <path clip-path="url(#pd5e3e5fb08)" d="M 73.077175 224.64 
L 74.5763 224.64 
L 74.5763 197.744216 
L 73.077175 197.744216 
z
" style="fill:#1f77b4;"/>
   </g>
   <g id="patch_11">
    <path clip-path="url(#pd5e3e5fb08)" d="M 74.5763 224.64 
L 76.075424 224.64 
L 76.075424 214.180529 
L 74.5763 214.180529 
z
" style="fill:#1f77b4;"/>
   </g>
   <g id="patch_12">
    <path clip-path="url(#pd5e3e5fb08)" d="M 76.075424 224.64 
L 77.574549 224.64 
L 77.574549 202.226847 
L 76.075424 202.226847 
z
" style="fill:#1f77b4;"/>
   </g>
   <g id="patch_13">
    <path clip-path="url(#pd5e3e5fb08)" d="M 77.574549 224.64 
L 79.073673 224.64 
L 79.073673 212.686318 
L 77.574549 212.686318 
z
" style="fill:#1f77b4;"/>
   </g>
   <g id="patch_14">
    <path clip-path="url(#pd5e3e5fb08)" d="M 79.073673 224.64 
L 80.572797 224.64 
L 80.572797 209.697898 
L 79.073673 209.697898 
z
" style="fill:#1f77b4;"/>
   </g>
   <g id="patch_15">
    <path clip-path="url(#pd5e3e5fb08)" d="M 80.572797 224.64 
L 82.071922 224.64 
L 82.071922 205.215267 
L 80.572797 205.215267 
z
" style="fill:#1f77b4;"/>
   </g>
   <g id="patch_16">
    <path clip-path="url(#pd5e3e5fb08)" d="M 82.071922 224.64 
L 83.571046 224.64 
L 83.571046 190.273165 
L 82.071922 190.273165 
z
" style="fill:#1f77b4;"/>
   </g>
   <g id="patch_17">
    <path clip-path="url(#pd5e3e5fb08)" d="M 83.571046 224.64 
L 85.070171 224.64 
L 85.070171 203.721057 
L 83.571046 203.721057 
z
" style="fill:#1f77b4;"/>
   </g>
   <g id="patch_18">
    <path clip-path="url(#pd5e3e5fb08)" d="M 85.070171 224.64 
L 86.569295 224.64 
L 86.569295 197.744216 
L 85.070171 197.744216 
z
" style="fill:#1f77b4;"/>
   </g>
   <g id="patch_19">
    <path clip-path="url(#pd5e3e5fb08)" d="M 86.569295 224.64 
L 88.068419 224.64 
L 88.068419 191.767376 
L 86.569295 191.767376 
z
" style="fill:#1f77b4;"/>
   </g>
   <g id="patch_20">
    <path clip-path="url(#pd5e3e5fb08)" d="M 88.068419 224.64 
L 89.567544 224.64 
L 89.567544 197.744216 
L 88.068419 197.744216 
z
" style="fill:#1f77b4;"/>
   </g>
   <g id="patch_21">
    <path clip-path="url(#pd5e3e5fb08)" d="M 89.567544 224.64 
L 91.066668 224.64 
L 91.066668 196.250006 
L 89.567544 196.250006 
z
" style="fill:#1f77b4;"/>
   </g>
   <g id="patch_22">
    <path clip-path="url(#pd5e3e5fb08)" d="M 91.066668 224.64 
L 92.565793 224.64 
L 92.565793 191.767376 
L 91.066668 191.767376 
z
" style="fill:#1f77b4;"/>
   </g>
   <g id="patch_23">
    <path clip-path="url(#pd5e3e5fb08)" d="M 92.565793 224.64 
L 94.064917 224.64 
L 94.064917 187.284745 
L 92.565793 187.284745 
z
" style="fill:#1f77b4;"/>
   </g>
   <g id="patch_24">
    <path clip-path="url(#pd5e3e5fb08)" d="M 94.064917 224.64 
L 95.564041 224.64 
L 95.564041 178.319484 
L 94.064917 178.319484 
z
" style="fill:#1f77b4;"/>
   </g>
   <g id="patch_25">
    <path clip-path="url(#pd5e3e5fb08)" d="M 95.564041 224.64 
L 97.063166 224.64 
L 97.063166 191.767376 
L 95.564041 191.767376 
z
" style="fill:#1f77b4;"/>
   </g>
   <g id="patch_26">
    <path clip-path="url(#pd5e3e5fb08)" d="M 97.063166 224.64 
L 98.56229 224.64 
L 98.56229 179.813694 
L 97.063166 179.813694 
z
" style="fill:#1f77b4;"/>
   </g>
   <g id="patch_27">
    <path clip-path="url(#pd5e3e5fb08)" d="M 98.56229 224.64 
L 100.061415 224.64 
L 100.061415 199.238427 
L 98.56229 199.238427 
z
" style="fill:#1f77b4;"/>
   </g>
   <g id="patch_28">
    <path clip-path="url(#pd5e3e5fb08)" d="M 100.061415 224.64 
L 101.560539 224.64 
L 101.560539 164.871592 
L 100.061415 164.871592 
z
" style="fill:#1f77b4;"/>
   </g>
   <g id="patch_29">
    <path clip-path="url(#pd5e3e5fb08)" d="M 101.560539 224.64 
L 103.059663 224.64 
L 103.059663 188.778955 
L 101.560539 188.778955 
z
" style="fill:#1f77b4;"/>
   </g>
   <g id="patch_30">
    <path clip-path="url(#pd5e3e5fb08)" d="M 103.059663 224.64 
L 104.558788 224.64 
L 104.558788 188.778955 
L 103.059663 188.778955 
z
" style="fill:#1f77b4;"/>
   </g>
   <g id="patch_31">
    <path clip-path="url(#pd5e3e5fb08)" d="M 104.558788 224.64 
L 106.057912 224.64 
L 106.057912 170.848433 
L 104.558788 170.848433 
z
" style="fill:#1f77b4;"/>
   </g>
   <g id="patch_32">
    <path clip-path="url(#pd5e3e5fb08)" d="M 106.057912 224.64 
L 107.557037 224.64 
L 107.557037 182.802114 
L 106.057912 182.802114 
z
" style="fill:#1f77b4;"/>
   </g>
   <g id="patch_33">
    <path clip-path="url(#pd5e3e5fb08)" d="M 107.557037 224.64 
L 109.056161 224.64 
L 109.056161 179.813694 
L 107.557037 179.813694 
z
" style="fill:#1f77b4;"/>
   </g>
   <g id="patch_34">
    <path clip-path="url(#pd5e3e5fb08)" d="M 109.056161 224.64 
L 110.555285 224.64 
L 110.555285 187.284745 
L 109.056161 187.284745 
z
" style="fill:#1f77b4;"/>
   </g>
   <g id="patch_35">
    <path clip-path="url(#pd5e3e5fb08)" d="M 110.555285 224.64 
L 112.05441 224.64 
L 112.05441 176.825274 
L 110.555285 176.825274 
z
" style="fill:#1f77b4;"/>
   </g>
   <g id="patch_36">
    <path clip-path="url(#pd5e3e5fb08)" d="M 112.05441 224.64 
L 113.553534 224.64 
L 113.553534 178.319484 
L 112.05441 178.319484 
z
" style="fill:#1f77b4;"/>
   </g>
   <g id="patch_37">
    <path clip-path="url(#pd5e3e5fb08)" d="M 113.553534 224.64 
L 115.052659 224.64 
L 115.052659 181.307904 
L 113.553534 181.307904 
z
" style="fill:#1f77b4;"/>
   </g>
   <g id="patch_38">
    <path clip-path="url(#pd5e3e5fb08)" d="M 115.052659 224.64 
L 116.551783 224.64 
L 116.551783 188.778955 
L 115.052659 188.778955 
z
" style="fill:#1f77b4;"/>
   </g>
   <g id="patch_39">
    <path clip-path="url(#pd5e3e5fb08)" d="M 116.551783 224.64 
L 118.050907 224.64 
L 118.050907 178.319484 
L 116.551783 178.319484 
z
" style="fill:#1f77b4;"/>
   </g>
   <g id="patch_40">
    <path clip-path="url(#pd5e3e5fb08)" d="M 118.050907 224.64 
L 119.550032 224.64 
L 119.550032 173.836853 
L 118.050907 173.836853 
z
" style="fill:#1f77b4;"/>
   </g>
   <g id="patch_41">
    <path clip-path="url(#pd5e3e5fb08)" d="M 119.550032 224.64 
L 121.049156 224.64 
L 121.049156 197.744216 
L 119.550032 197.744216 
z
" style="fill:#1f77b4;"/>
   </g>
   <g id="patch_42">
    <path clip-path="url(#pd5e3e5fb08)" d="M 121.049156 224.64 
L 122.548281 224.64 
L 122.548281 178.319484 
L 121.049156 178.319484 
z
" style="fill:#1f77b4;"/>
   </g>
   <g id="patch_43">
    <path clip-path="url(#pd5e3e5fb08)" d="M 122.548281 224.64 
L 124.047405 224.64 
L 124.047405 187.284745 
L 122.548281 187.284745 
z
" style="fill:#1f77b4;"/>
   </g>
   <g id="patch_44">
    <path clip-path="url(#pd5e3e5fb08)" d="M 124.047405 224.64 
L 125.546529 224.64 
L 125.546529 170.848433 
L 124.047405 170.848433 
z
" style="fill:#1f77b4;"/>
   </g>
   <g id="patch_45">
    <path clip-path="url(#pd5e3e5fb08)" d="M 125.546529 224.64 
L 127.045654 224.64 
L 127.045654 173.836853 
L 125.546529 173.836853 
z
" style="fill:#1f77b4;"/>
   </g>
   <g id="patch_46">
    <path clip-path="url(#pd5e3e5fb08)" d="M 127.045654 224.64 
L 128.544778 224.64 
L 128.544778 181.307904 
L 127.045654 181.307904 
z
" style="fill:#1f77b4;"/>
   </g>
   <g id="patch_47">
    <path clip-path="url(#pd5e3e5fb08)" d="M 128.544778 224.64 
L 130.043903 224.64 
L 130.043903 158.894751 
L 128.544778 158.894751 
z
" style="fill:#1f77b4;"/>
   </g>
   <g id="patch_48">
    <path clip-path="url(#pd5e3e5fb08)" d="M 130.043903 224.64 
L 131.543027 224.64 
L 131.543027 170.848433 
L 130.043903 170.848433 
z
" style="fill:#1f77b4;"/>
   </g>
   <g id="patch_49">
    <path clip-path="url(#pd5e3e5fb08)" d="M 131.543027 224.64 
L 133.042152 224.64 
L 133.042152 166.365802 
L 131.543027 166.365802 
z
" style="fill:#1f77b4;"/>
   </g>
   <g id="patch_50">
    <path clip-path="url(#pd5e3e5fb08)" d="M 133.042152 224.64 
L 134.541276 224.64 
L 134.541276 164.871592 
L 133.042152 164.871592 
z
" style="fill:#1f77b4;"/>
   </g>
   <g id="patch_51">
    <path clip-path="url(#pd5e3e5fb08)" d="M 134.541276 224.64 
L 136.0404 224.64 
L 136.0404 167.860012 
L 134.541276 167.860012 
z
" style="fill:#1f77b4;"/>
   </g>
   <g id="patch_52">
    <path clip-path="url(#pd5e3e5fb08)" d="M 136.0404 224.64 
L 137.539525 224.64 
L 137.539525 172.342643 
L 136.0404 172.342643 
z
" style="fill:#1f77b4;"/>
   </g>
   <g id="patch_53">
    <path clip-path="url(#pd5e3e5fb08)" d="M 137.539525 224.64 
L 139.038649 224.64 
L 139.038649 176.825274 
L 137.539525 176.825274 
z
" style="fill:#1f77b4;"/>
   </g>
   <g id="patch_54">
    <path clip-path="url(#pd5e3e5fb08)" d="M 139.038649 224.64 
L 140.537774 224.64 
L 140.537774 179.813694 
L 139.038649 179.813694 
z
" style="fill:#1f77b4;"/>
   </g>
   <g id="patch_55">
    <path clip-path="url(#pd5e3e5fb08)" d="M 140.537774 224.64 
L 142.036898 224.64 
L 142.036898 166.365802 
L 140.537774 166.365802 
z
" style="fill:#1f77b4;"/>
   </g>
   <g id="patch_56">
    <path clip-path="url(#pd5e3e5fb08)" d="M 142.036898 224.64 
L 143.536022 224.64 
L 143.536022 166.365802 
L 142.036898 166.365802 
z
" style="fill:#1f77b4;"/>
   </g>
   <g id="patch_57">
    <path clip-path="url(#pd5e3e5fb08)" d="M 143.536022 224.64 
L 145.035147 224.64 
L 145.035147 166.365802 
L 143.536022 166.365802 
z
" style="fill:#1f77b4;"/>
   </g>
   <g id="patch_58">
    <path clip-path="url(#pd5e3e5fb08)" d="M 145.035147 224.64 
L 146.534271 224.64 
L 146.534271 163.377382 
L 145.035147 163.377382 
z
" style="fill:#1f77b4;"/>
   </g>
   <g id="patch_59">
    <path clip-path="url(#pd5e3e5fb08)" d="M 146.534271 224.64 
L 148.033396 224.64 
L 148.033396 175.331063 
L 146.534271 175.331063 
z
" style="fill:#1f77b4;"/>
   </g>
   <g id="patch_60">
    <path clip-path="url(#pd5e3e5fb08)" d="M 148.033396 224.64 
L 149.53252 224.64 
L 149.53252 154.41212 
L 148.033396 154.41212 
z
" style="fill:#1f77b4;"/>
   </g>
   <g id="patch_61">
    <path clip-path="url(#pd5e3e5fb08)" d="M 149.53252 224.64 
L 151.031644 224.64 
L 151.031644 167.860012 
L 149.53252 167.860012 
z
" style="fill:#1f77b4;"/>
   </g>
   <g id="patch_62">
    <path clip-path="url(#pd5e3e5fb08)" d="M 151.031644 224.64 
L 152.530769 224.64 
L 152.530769 158.894751 
L 151.031644 158.894751 
z
" style="fill:#1f77b4;"/>
   </g>
   <g id="patch_63">
    <path clip-path="url(#pd5e3e5fb08)" d="M 152.530769 224.64 
L 154.029893 224.64 
L 154.029893 169.354223 
L 152.530769 169.354223 
z
" style="fill:#1f77b4;"/>
   </g>
   <g id="patch_64">
    <path clip-path="url(#pd5e3e5fb08)" d="M 154.029893 224.64 
L 155.529018 224.64 
L 155.529018 187.284745 
L 154.029893 187.284745 
z
" style="fill:#1f77b4;"/>
   </g>
   <g id="patch_65">
    <path clip-path="url(#pd5e3e5fb08)" d="M 155.529018 224.64 
L 157.028142 224.64 
L 157.028142 167.860012 
L 155.529018 167.860012 
z
" style="fill:#1f77b4;"/>
   </g>
   <g id="patch_66">
    <path clip-path="url(#pd5e3e5fb08)" d="M 157.028142 224.64 
L 158.527266 224.64 
L 158.527266 172.342643 
L 157.028142 172.342643 
z
" style="fill:#1f77b4;"/>
   </g>
   <g id="patch_67">
    <path clip-path="url(#pd5e3e5fb08)" d="M 158.527266 224.64 
L 160.026391 224.64 
L 160.026391 167.860012 
L 158.527266 167.860012 
z
" style="fill:#1f77b4;"/>
   </g>
   <g id="patch_68">
    <path clip-path="url(#pd5e3e5fb08)" d="M 160.026391 224.64 
L 161.525515 224.64 
L 161.525515 178.319484 
L 160.026391 178.319484 
z
" style="fill:#1f77b4;"/>
   </g>
   <g id="patch_69">
    <path clip-path="url(#pd5e3e5fb08)" d="M 161.525515 224.64 
L 163.02464 224.64 
L 163.02464 173.836853 
L 161.525515 173.836853 
z
" style="fill:#1f77b4;"/>
   </g>
   <g id="patch_70">
    <path clip-path="url(#pd5e3e5fb08)" d="M 163.02464 224.64 
L 164.523764 224.64 
L 164.523764 191.767376 
L 163.02464 191.767376 
z
" style="fill:#1f77b4;"/>
   </g>
   <g id="patch_71">
    <path clip-path="url(#pd5e3e5fb08)" d="M 164.523764 224.64 
L 166.022888 224.64 
L 166.022888 169.354223 
L 164.523764 169.354223 
z
" style="fill:#1f77b4;"/>
   </g>
   <g id="patch_72">
    <path clip-path="url(#pd5e3e5fb08)" d="M 166.022888 224.64 
L 167.522013 224.64 
L 167.522013 187.284745 
L 166.022888 187.284745 
z
" style="fill:#1f77b4;"/>
   </g>
   <g id="patch_73">
    <path clip-path="url(#pd5e3e5fb08)" d="M 167.522013 224.64 
L 169.021137 224.64 
L 169.021137 179.813694 
L 167.522013 179.813694 
z
" style="fill:#1f77b4;"/>
   </g>
   <g id="patch_74">
    <path clip-path="url(#pd5e3e5fb08)" d="M 169.021137 224.64 
L 170.520262 224.64 
L 170.520262 172.342643 
L 169.021137 172.342643 
z
" style="fill:#1f77b4;"/>
   </g>
   <g id="patch_75">
    <path clip-path="url(#pd5e3e5fb08)" d="M 170.520262 224.64 
L 172.019386 224.64 
L 172.019386 148.43528 
L 170.520262 148.43528 
z
" style="fill:#1f77b4;"/>
   </g>
   <g id="patch_76">
    <path clip-path="url(#pd5e3e5fb08)" d="M 172.019386 224.64 
L 173.51851 224.64 
L 173.51851 149.92949 
L 172.019386 149.92949 
z
" style="fill:#1f77b4;"/>
   </g>
   <g id="patch_77">
    <path clip-path="url(#pd5e3e5fb08)" d="M 173.51851 224.64 
L 175.017635 224.64 
L 175.017635 164.871592 
L 173.51851 164.871592 
z
" style="fill:#1f77b4;"/>
   </g>
   <g id="patch_78">
    <path clip-path="url(#pd5e3e5fb08)" d="M 175.017635 224.64 
L 176.516759 224.64 
L 176.516759 173.836853 
L 175.017635 173.836853 
z
" style="fill:#1f77b4;"/>
   </g>
   <g id="patch_79">
    <path clip-path="url(#pd5e3e5fb08)" d="M 176.516759 224.64 
L 178.015884 224.64 
L 178.015884 140.964229 
L 176.516759 140.964229 
z
" style="fill:#1f77b4;"/>
   </g>
   <g id="patch_80">
    <path clip-path="url(#pd5e3e5fb08)" d="M 178.015884 224.64 
L 179.515008 224.64 
L 179.515008 163.377382 
L 178.015884 163.377382 
z
" style="fill:#1f77b4;"/>
   </g>
   <g id="patch_81">
    <path clip-path="url(#pd5e3e5fb08)" d="M 179.515008 224.64 
L 181.014132 224.64 
L 181.014132 154.41212 
L 179.515008 154.41212 
z
" style="fill:#1f77b4;"/>
   </g>
   <g id="patch_82">
    <path clip-path="url(#pd5e3e5fb08)" d="M 181.014132 224.64 
L 182.513257 224.64 
L 182.513257 167.860012 
L 181.014132 167.860012 
z
" style="fill:#1f77b4;"/>
   </g>
   <g id="patch_83">
    <path clip-path="url(#pd5e3e5fb08)" d="M 182.513257 224.64 
L 184.012381 224.64 
L 184.012381 167.860012 
L 182.513257 167.860012 
z
" style="fill:#1f77b4;"/>
   </g>
   <g id="patch_84">
    <path clip-path="url(#pd5e3e5fb08)" d="M 184.012381 224.64 
L 185.511506 224.64 
L 185.511506 164.871592 
L 184.012381 164.871592 
z
" style="fill:#1f77b4;"/>
   </g>
   <g id="patch_85">
    <path clip-path="url(#pd5e3e5fb08)" d="M 185.511506 224.64 
L 187.01063 224.64 
L 187.01063 169.354223 
L 185.511506 169.354223 
z
" style="fill:#1f77b4;"/>
   </g>
   <g id="patch_86">
    <path clip-path="url(#pd5e3e5fb08)" d="M 187.01063 224.64 
L 188.509755 224.64 
L 188.509755 158.894751 
L 187.01063 158.894751 
z
" style="fill:#1f77b4;"/>
   </g>
   <g id="patch_87">
    <path clip-path="url(#pd5e3e5fb08)" d="M 188.509755 224.64 
L 190.008879 224.64 
L 190.008879 178.319484 
L 188.509755 178.319484 
z
" style="fill:#1f77b4;"/>
   </g>
   <g id="patch_88">
    <path clip-path="url(#pd5e3e5fb08)" d="M 190.008879 224.64 
L 191.508003 224.64 
L 191.508003 167.860012 
L 190.008879 167.860012 
z
" style="fill:#1f77b4;"/>
   </g>
   <g id="patch_89">
    <path clip-path="url(#pd5e3e5fb08)" d="M 191.508003 224.64 
L 193.007128 224.64 
L 193.007128 169.354223 
L 191.508003 169.354223 
z
" style="fill:#1f77b4;"/>
   </g>
   <g id="patch_90">
    <path clip-path="url(#pd5e3e5fb08)" d="M 193.007128 224.64 
L 194.506252 224.64 
L 194.506252 155.906331 
L 193.007128 155.906331 
z
" style="fill:#1f77b4;"/>
   </g>
   <g id="patch_91">
    <path clip-path="url(#pd5e3e5fb08)" d="M 194.506252 224.64 
L 196.005377 224.64 
L 196.005377 155.906331 
L 194.506252 155.906331 
z
" style="fill:#1f77b4;"/>
   </g>
   <g id="patch_92">
    <path clip-path="url(#pd5e3e5fb08)" d="M 196.005377 224.64 
L 197.504501 224.64 
L 197.504501 158.894751 
L 196.005377 158.894751 
z
" style="fill:#1f77b4;"/>
   </g>
   <g id="patch_93">
    <path clip-path="url(#pd5e3e5fb08)" d="M 197.504501 224.64 
L 199.003625 224.64 
L 199.003625 179.813694 
L 197.504501 179.813694 
z
" style="fill:#1f77b4;"/>
   </g>
   <g id="patch_94">
    <path clip-path="url(#pd5e3e5fb08)" d="M 199.003625 224.64 
L 200.50275 224.64 
L 200.50275 161.883172 
L 199.003625 161.883172 
z
" style="fill:#1f77b4;"/>
   </g>
   <g id="patch_95">
    <path clip-path="url(#pd5e3e5fb08)" d="M 200.50275 224.64 
L 202.001874 224.64 
L 202.001874 164.871592 
L 200.50275 164.871592 
z
" style="fill:#1f77b4;"/>
   </g>
   <g id="patch_96">
    <path clip-path="url(#pd5e3e5fb08)" d="M 202.001874 224.64 
L 203.500999 224.64 
L 203.500999 166.365802 
L 202.001874 166.365802 
z
" style="fill:#1f77b4;"/>
   </g>
   <g id="patch_97">
    <path clip-path="url(#pd5e3e5fb08)" d="M 203.500999 224.64 
L 205.000123 224.64 
L 205.000123 152.91791 
L 203.500999 152.91791 
z
" style="fill:#1f77b4;"/>
   </g>
   <g id="patch_98">
    <path clip-path="url(#pd5e3e5fb08)" d="M 205.000123 224.64 
L 206.499247 224.64 
L 206.499247 173.836853 
L 205.000123 173.836853 
z
" style="fill:#1f77b4;"/>
   </g>
   <g id="patch_99">
    <path clip-path="url(#pd5e3e5fb08)" d="M 206.499247 224.64 
L 207.998372 224.64 
L 207.998372 158.894751 
L 206.499247 158.894751 
z
" style="fill:#1f77b4;"/>
   </g>
   <g id="patch_100">
    <path clip-path="url(#pd5e3e5fb08)" d="M 207.998372 224.64 
L 209.497496 224.64 
L 209.497496 161.883172 
L 207.998372 161.883172 
z
" style="fill:#1f77b4;"/>
   </g>
   <g id="patch_101">
    <path clip-path="url(#pd5e3e5fb08)" d="M 209.497496 224.64 
L 210.996621 224.64 
L 210.996621 182.802114 
L 209.497496 182.802114 
z
" style="fill:#1f77b4;"/>
   </g>
   <g id="patch_102">
    <path clip-path="url(#pd5e3e5fb08)" d="M 210.996621 224.64 
L 212.495745 224.64 
L 212.495745 154.41212 
L 210.996621 154.41212 
z
" style="fill:#1f77b4;"/>
   </g>
   <g id="patch_103">
    <path clip-path="url(#pd5e3e5fb08)" d="M 212.495745 224.64 
L 213.994869 224.64 
L 213.994869 170.848433 
L 212.495745 170.848433 
z
" style="fill:#1f77b4;"/>
   </g>
   <g id="patch_104">
    <path clip-path="url(#pd5e3e5fb08)" d="M 213.994869 224.64 
L 215.493994 224.64 
L 215.493994 160.388961 
L 213.994869 160.388961 
z
" style="fill:#1f77b4;"/>
   </g>
   <g id="patch_105">
    <path clip-path="url(#pd5e3e5fb08)" d="M 215.493994 224.64 
L 216.993118 224.64 
L 216.993118 157.400541 
L 215.493994 157.400541 
z
" style="fill:#1f77b4;"/>
   </g>
   <g id="patch_106">
    <path clip-path="url(#pd5e3e5fb08)" d="M 216.993118 224.64 
L 218.492243 224.64 
L 218.492243 157.400541 
L 216.993118 157.400541 
z
" style="fill:#1f77b4;"/>
   </g>
   <g id="patch_107">
    <path clip-path="url(#pd5e3e5fb08)" d="M 218.492243 224.64 
L 219.991367 224.64 
L 219.991367 170.848433 
L 218.492243 170.848433 
z
" style="fill:#1f77b4;"/>
   </g>
   <g id="patch_108">
    <path clip-path="url(#pd5e3e5fb08)" d="M 219.991367 224.64 
L 221.490491 224.64 
L 221.490491 157.400541 
L 219.991367 157.400541 
z
" style="fill:#1f77b4;"/>
   </g>
   <g id="patch_109">
    <path clip-path="url(#pd5e3e5fb08)" d="M 221.490491 224.64 
L 222.989616 224.64 
L 222.989616 172.342643 
L 221.490491 172.342643 
z
" style="fill:#1f77b4;"/>
   </g>
   <g id="patch_110">
    <path clip-path="url(#pd5e3e5fb08)" d="M 222.989616 224.64 
L 224.48874 224.64 
L 224.48874 173.836853 
L 222.989616 173.836853 
z
" style="fill:#1f77b4;"/>
   </g>
   <g id="patch_111">
    <path clip-path="url(#pd5e3e5fb08)" d="M 224.48874 224.64 
L 225.987865 224.64 
L 225.987865 172.342643 
L 224.48874 172.342643 
z
" style="fill:#1f77b4;"/>
   </g>
   <g id="patch_112">
    <path clip-path="url(#pd5e3e5fb08)" d="M 225.987865 224.64 
L 227.486989 224.64 
L 227.486989 148.43528 
L 225.987865 148.43528 
z
" style="fill:#1f77b4;"/>
   </g>
   <g id="patch_113">
    <path clip-path="url(#pd5e3e5fb08)" d="M 227.486989 224.64 
L 228.986113 224.64 
L 228.986113 160.388961 
L 227.486989 160.388961 
z
" style="fill:#1f77b4;"/>
   </g>
   <g id="patch_114">
    <path clip-path="url(#pd5e3e5fb08)" d="M 228.986113 224.64 
L 230.485238 224.64 
L 230.485238 161.883172 
L 228.986113 161.883172 
z
" style="fill:#1f77b4;"/>
   </g>
   <g id="patch_115">
    <path clip-path="url(#pd5e3e5fb08)" d="M 230.485238 224.64 
L 231.984362 224.64 
L 231.984362 166.365802 
L 230.485238 166.365802 
z
" style="fill:#1f77b4;"/>
   </g>
   <g id="patch_116">
    <path clip-path="url(#pd5e3e5fb08)" d="M 231.984362 224.64 
L 233.483487 224.64 
L 233.483487 166.365802 
L 231.984362 166.365802 
z
" style="fill:#1f77b4;"/>
   </g>
   <g id="patch_117">
    <path clip-path="url(#pd5e3e5fb08)" d="M 233.483487 224.64 
L 234.982611 224.64 
L 234.982611 170.848433 
L 233.483487 170.848433 
z
" style="fill:#1f77b4;"/>
   </g>
   <g id="patch_118">
    <path clip-path="url(#pd5e3e5fb08)" d="M 234.982611 224.64 
L 236.481735 224.64 
L 236.481735 170.848433 
L 234.982611 170.848433 
z
" style="fill:#1f77b4;"/>
   </g>
   <g id="patch_119">
    <path clip-path="url(#pd5e3e5fb08)" d="M 236.481735 224.64 
L 237.98086 224.64 
L 237.98086 172.342643 
L 236.481735 172.342643 
z
" style="fill:#1f77b4;"/>
   </g>
   <g id="patch_120">
    <path clip-path="url(#pd5e3e5fb08)" d="M 237.98086 224.64 
L 239.479984 224.64 
L 239.479984 152.91791 
L 237.98086 152.91791 
z
" style="fill:#1f77b4;"/>
   </g>
   <g id="patch_121">
    <path clip-path="url(#pd5e3e5fb08)" d="M 239.479984 224.64 
L 240.979109 224.64 
L 240.979109 169.354223 
L 239.479984 169.354223 
z
" style="fill:#1f77b4;"/>
   </g>
   <g id="patch_122">
    <path clip-path="url(#pd5e3e5fb08)" d="M 240.979109 224.64 
L 242.478233 224.64 
L 242.478233 166.365802 
L 240.979109 166.365802 
z
" style="fill:#1f77b4;"/>
   </g>
   <g id="patch_123">
    <path clip-path="url(#pd5e3e5fb08)" d="M 242.478233 224.64 
L 243.977357 224.64 
L 243.977357 151.4237 
L 242.478233 151.4237 
z
" style="fill:#1f77b4;"/>
   </g>
   <g id="patch_124">
    <path clip-path="url(#pd5e3e5fb08)" d="M 243.977357 224.64 
L 245.476482 224.64 
L 245.476482 139.470018 
L 243.977357 139.470018 
z
" style="fill:#1f77b4;"/>
   </g>
   <g id="patch_125">
    <path clip-path="url(#pd5e3e5fb08)" d="M 245.476482 224.64 
L 246.975606 224.64 
L 246.975606 160.388961 
L 245.476482 160.388961 
z
" style="fill:#1f77b4;"/>
   </g>
   <g id="patch_126">
    <path clip-path="url(#pd5e3e5fb08)" d="M 246.975606 224.64 
L 248.474731 224.64 
L 248.474731 149.92949 
L 246.975606 149.92949 
z
" style="fill:#1f77b4;"/>
   </g>
   <g id="patch_127">
    <path clip-path="url(#pd5e3e5fb08)" d="M 248.474731 224.64 
L 249.973855 224.64 
L 249.973855 157.400541 
L 248.474731 157.400541 
z
" style="fill:#1f77b4;"/>
   </g>
   <g id="patch_128">
    <path clip-path="url(#pd5e3e5fb08)" d="M 249.973855 224.64 
L 251.47298 224.64 
L 251.47298 161.883172 
L 249.973855 161.883172 
z
" style="fill:#1f77b4;"/>
   </g>
   <g id="patch_129">
    <path clip-path="url(#pd5e3e5fb08)" d="M 251.47298 224.64 
L 252.972104 224.64 
L 252.972104 160.388961 
L 251.47298 160.388961 
z
" style="fill:#1f77b4;"/>
   </g>
   <g id="patch_130">
    <path clip-path="url(#pd5e3e5fb08)" d="M 252.972104 224.64 
L 254.471228 224.64 
L 254.471228 148.43528 
L 252.972104 148.43528 
z
" style="fill:#1f77b4;"/>
   </g>
   <g id="patch_131">
    <path clip-path="url(#pd5e3e5fb08)" d="M 254.471228 224.64 
L 255.970353 224.64 
L 255.970353 151.4237 
L 254.471228 151.4237 
z
" style="fill:#1f77b4;"/>
   </g>
   <g id="patch_132">
    <path clip-path="url(#pd5e3e5fb08)" d="M 255.970353 224.64 
L 257.469477 224.64 
L 257.469477 154.41212 
L 255.970353 154.41212 
z
" style="fill:#1f77b4;"/>
   </g>
   <g id="patch_133">
    <path clip-path="url(#pd5e3e5fb08)" d="M 257.469477 224.64 
L 258.968602 224.64 
L 258.968602 155.906331 
L 257.469477 155.906331 
z
" style="fill:#1f77b4;"/>
   </g>
   <g id="patch_134">
    <path clip-path="url(#pd5e3e5fb08)" d="M 258.968602 224.64 
L 260.467726 224.64 
L 260.467726 152.91791 
L 258.968602 152.91791 
z
" style="fill:#1f77b4;"/>
   </g>
   <g id="patch_135">
    <path clip-path="url(#pd5e3e5fb08)" d="M 260.467726 224.64 
L 261.96685 224.64 
L 261.96685 155.906331 
L 260.467726 155.906331 
z
" style="fill:#1f77b4;"/>
   </g>
   <g id="patch_136">
    <path clip-path="url(#pd5e3e5fb08)" d="M 261.96685 224.64 
L 263.465975 224.64 
L 263.465975 152.91791 
L 261.96685 152.91791 
z
" style="fill:#1f77b4;"/>
   </g>
   <g id="patch_137">
    <path clip-path="url(#pd5e3e5fb08)" d="M 263.465975 224.64 
L 264.965099 224.64 
L 264.965099 151.4237 
L 263.465975 151.4237 
z
" style="fill:#1f77b4;"/>
   </g>
   <g id="patch_138">
    <path clip-path="url(#pd5e3e5fb08)" d="M 264.965099 224.64 
L 266.464224 224.64 
L 266.464224 142.458439 
L 264.965099 142.458439 
z
" style="fill:#1f77b4;"/>
   </g>
   <g id="patch_139">
    <path clip-path="url(#pd5e3e5fb08)" d="M 266.464224 224.64 
L 267.963348 224.64 
L 267.963348 145.446859 
L 266.464224 145.446859 
z
" style="fill:#1f77b4;"/>
   </g>
   <g id="patch_140">
    <path clip-path="url(#pd5e3e5fb08)" d="M 267.963348 224.64 
L 269.462472 224.64 
L 269.462472 154.41212 
L 267.963348 154.41212 
z
" style="fill:#1f77b4;"/>
   </g>
   <g id="patch_141">
    <path clip-path="url(#pd5e3e5fb08)" d="M 269.462472 224.64 
L 270.961597 224.64 
L 270.961597 146.941069 
L 269.462472 146.941069 
z
" style="fill:#1f77b4;"/>
   </g>
   <g id="patch_142">
    <path clip-path="url(#pd5e3e5fb08)" d="M 270.961597 224.64 
L 272.460721 224.64 
L 272.460721 140.964229 
L 270.961597 140.964229 
z
" style="fill:#1f77b4;"/>
   </g>
   <g id="patch_143">
    <path clip-path="url(#pd5e3e5fb08)" d="M 272.460721 224.64 
L 273.959846 224.64 
L 273.959846 140.964229 
L 272.460721 140.964229 
z
" style="fill:#1f77b4;"/>
   </g>
   <g id="patch_144">
    <path clip-path="url(#pd5e3e5fb08)" d="M 273.959846 224.64 
L 275.45897 224.64 
L 275.45897 154.41212 
L 273.959846 154.41212 
z
" style="fill:#1f77b4;"/>
   </g>
   <g id="patch_145">
    <path clip-path="url(#pd5e3e5fb08)" d="M 275.45897 224.64 
L 276.958094 224.64 
L 276.958094 155.906331 
L 275.45897 155.906331 
z
" style="fill:#1f77b4;"/>
   </g>
   <g id="patch_146">
    <path clip-path="url(#pd5e3e5fb08)" d="M 276.958094 224.64 
L 278.457219 224.64 
L 278.457219 134.987388 
L 276.958094 134.987388 
z
" style="fill:#1f77b4;"/>
   </g>
   <g id="patch_147">
    <path clip-path="url(#pd5e3e5fb08)" d="M 278.457219 224.64 
L 279.956343 224.64 
L 279.956343 145.446859 
L 278.457219 145.446859 
z
" style="fill:#1f77b4;"/>
   </g>
   <g id="patch_148">
    <path clip-path="url(#pd5e3e5fb08)" d="M 279.956343 224.64 
L 281.455468 224.64 
L 281.455468 137.975808 
L 279.956343 137.975808 
z
" style="fill:#1f77b4;"/>
   </g>
   <g id="patch_149">
    <path clip-path="url(#pd5e3e5fb08)" d="M 281.455468 224.64 
L 282.954592 224.64 
L 282.954592 136.481598 
L 281.455468 136.481598 
z
" style="fill:#1f77b4;"/>
   </g>
   <g id="patch_150">
    <path clip-path="url(#pd5e3e5fb08)" d="M 282.954592 224.64 
L 284.453716 224.64 
L 284.453716 126.022127 
L 282.954592 126.022127 
z
" style="fill:#1f77b4;"/>
   </g>
   <g id="patch_151">
    <path clip-path="url(#pd5e3e5fb08)" d="M 284.453716 224.64 
L 285.952841 224.64 
L 285.952841 133.493178 
L 284.453716 133.493178 
z
" style="fill:#1f77b4;"/>
   </g>
   <g id="patch_152">
    <path clip-path="url(#pd5e3e5fb08)" d="M 285.952841 224.64 
L 287.451965 224.64 
L 287.451965 151.4237 
L 285.952841 151.4237 
z
" style="fill:#1f77b4;"/>
   </g>
   <g id="patch_153">
    <path clip-path="url(#pd5e3e5fb08)" d="M 287.451965 224.64 
L 288.95109 224.64 
L 288.95109 120.045286 
L 287.451965 120.045286 
z
" style="fill:#1f77b4;"/>
   </g>
   <g id="patch_154">
    <path clip-path="url(#pd5e3e5fb08)" d="M 288.95109 224.64 
L 290.450214 224.64 
L 290.450214 115.562655 
L 288.95109 115.562655 
z
" style="fill:#1f77b4;"/>
   </g>
   <g id="patch_155">
    <path clip-path="url(#pd5e3e5fb08)" d="M 290.450214 224.64 
L 291.949338 224.64 
L 291.949338 142.458439 
L 290.450214 142.458439 
z
" style="fill:#1f77b4;"/>
   </g>
   <g id="patch_156">
    <path clip-path="url(#pd5e3e5fb08)" d="M 291.949338 224.64 
L 293.448463 224.64 
L 293.448463 145.446859 
L 291.949338 145.446859 
z
" style="fill:#1f77b4;"/>
   </g>
   <g id="patch_157">
    <path clip-path="url(#pd5e3e5fb08)" d="M 293.448463 224.64 
L 294.947587 224.64 
L 294.947587 123.033706 
L 293.448463 123.033706 
z
" style="fill:#1f77b4;"/>
   </g>
   <g id="patch_158">
    <path clip-path="url(#pd5e3e5fb08)" d="M 294.947587 224.64 
L 296.446712 224.64 
L 296.446712 131.998967 
L 294.947587 131.998967 
z
" style="fill:#1f77b4;"/>
   </g>
   <g id="patch_159">
    <path clip-path="url(#pd5e3e5fb08)" d="M 296.446712 224.64 
L 297.945836 224.64 
L 297.945836 131.998967 
L 296.446712 131.998967 
z
" style="fill:#1f77b4;"/>
   </g>
   <g id="patch_160">
    <path clip-path="url(#pd5e3e5fb08)" d="M 297.945836 224.64 
L 299.44496 224.64 
L 299.44496 140.964229 
L 297.945836 140.964229 
z
" style="fill:#1f77b4;"/>
   </g>
   <g id="patch_161">
    <path clip-path="url(#pd5e3e5fb08)" d="M 299.44496 224.64 
L 300.944085 224.64 
L 300.944085 127.516337 
L 299.44496 127.516337 
z
" style="fill:#1f77b4;"/>
   </g>
   <g id="patch_162">
    <path clip-path="url(#pd5e3e5fb08)" d="M 300.944085 224.64 
L 302.443209 224.64 
L 302.443209 124.527916 
L 300.944085 124.527916 
z
" style="fill:#1f77b4;"/>
   </g>
   <g id="patch_163">
    <path clip-path="url(#pd5e3e5fb08)" d="M 302.443209 224.64 
L 303.942334 224.64 
L 303.942334 121.539496 
L 302.443209 121.539496 
z
" style="fill:#1f77b4;"/>
   </g>
   <g id="patch_164">
    <path clip-path="url(#pd5e3e5fb08)" d="M 303.942334 224.64 
L 305.441458 224.64 
L 305.441458 136.481598 
L 303.942334 136.481598 
z
" style="fill:#1f77b4;"/>
   </g>
   <g id="patch_165">
    <path clip-path="url(#pd5e3e5fb08)" d="M 305.441458 224.64 
L 306.940583 224.64 
L 306.940583 118.551076 
L 305.441458 118.551076 
z
" style="fill:#1f77b4;"/>
   </g>
   <g id="patch_166">
    <path clip-path="url(#pd5e3e5fb08)" d="M 306.940583 224.64 
L 308.439707 224.64 
L 308.439707 118.551076 
L 306.940583 118.551076 
z
" style="fill:#1f77b4;"/>
   </g>
   <g id="patch_167">
    <path clip-path="url(#pd5e3e5fb08)" d="M 308.439707 224.64 
L 309.938831 224.64 
L 309.938831 111.080025 
L 308.439707 111.080025 
z
" style="fill:#1f77b4;"/>
   </g>
   <g id="patch_168">
    <path clip-path="url(#pd5e3e5fb08)" d="M 309.938831 224.64 
L 311.437956 224.64 
L 311.437956 90.161082 
L 309.938831 90.161082 
z
" style="fill:#1f77b4;"/>
   </g>
   <g id="patch_169">
    <path clip-path="url(#pd5e3e5fb08)" d="M 311.437956 224.64 
L 312.93708 224.64 
L 312.93708 93.149502 
L 311.437956 93.149502 
z
" style="fill:#1f77b4;"/>
   </g>
   <g id="patch_170">
    <path clip-path="url(#pd5e3e5fb08)" d="M 312.93708 224.64 
L 314.436205 224.64 
L 314.436205 106.597394 
L 312.93708 106.597394 
z
" style="fill:#1f77b4;"/>
   </g>
   <g id="patch_171">
    <path clip-path="url(#pd5e3e5fb08)" d="M 314.436205 224.64 
L 315.935329 224.64 
L 315.935329 97.632133 
L 314.436205 97.632133 
z
" style="fill:#1f77b4;"/>
   </g>
   <g id="patch_172">
    <path clip-path="url(#pd5e3e5fb08)" d="M 315.935329 224.64 
L 317.434453 224.64 
L 317.434453 99.126343 
L 315.935329 99.126343 
z
" style="fill:#1f77b4;"/>
   </g>
   <g id="patch_173">
    <path clip-path="url(#pd5e3e5fb08)" d="M 317.434453 224.64 
L 318.933578 224.64 
L 318.933578 131.998967 
L 317.434453 131.998967 
z
" style="fill:#1f77b4;"/>
   </g>
   <g id="patch_174">
    <path clip-path="url(#pd5e3e5fb08)" d="M 318.933578 224.64 
L 320.432702 224.64 
L 320.432702 115.562655 
L 318.933578 115.562655 
z
" style="fill:#1f77b4;"/>
   </g>
   <g id="patch_175">
    <path clip-path="url(#pd5e3e5fb08)" d="M 320.432702 224.64 
L 321.931827 224.64 
L 321.931827 99.126343 
L 320.432702 99.126343 
z
" style="fill:#1f77b4;"/>
   </g>
   <g id="patch_176">
    <path clip-path="url(#pd5e3e5fb08)" d="M 321.931827 224.64 
L 323.430951 224.64 
L 323.430951 97.632133 
L 321.931827 97.632133 
z
" style="fill:#1f77b4;"/>
   </g>
   <g id="patch_177">
    <path clip-path="url(#pd5e3e5fb08)" d="M 323.430951 224.64 
L 324.930075 224.64 
L 324.930075 93.149502 
L 323.430951 93.149502 
z
" style="fill:#1f77b4;"/>
   </g>
   <g id="patch_178">
    <path clip-path="url(#pd5e3e5fb08)" d="M 324.930075 224.64 
L 326.4292 224.64 
L 326.4292 82.690031 
L 324.930075 82.690031 
z
" style="fill:#1f77b4;"/>
   </g>
   <g id="patch_179">
    <path clip-path="url(#pd5e3e5fb08)" d="M 326.4292 224.64 
L 327.928324 224.64 
L 327.928324 84.184241 
L 326.4292 84.184241 
z
" style="fill:#1f77b4;"/>
   </g>
   <g id="patch_180">
    <path clip-path="url(#pd5e3e5fb08)" d="M 327.928324 224.64 
L 329.427449 224.64 
L 329.427449 64.759508 
L 327.928324 64.759508 
z
" style="fill:#1f77b4;"/>
   </g>
   <g id="patch_181">
    <path clip-path="url(#pd5e3e5fb08)" d="M 329.427449 224.64 
L 330.926573 224.64 
L 330.926573 105.103184 
L 329.427449 105.103184 
z
" style="fill:#1f77b4;"/>
   </g>
   <g id="patch_182">
    <path clip-path="url(#pd5e3e5fb08)" d="M 330.926573 224.64 
L 332.425697 224.64 
L 332.425697 97.632133 
L 330.926573 97.632133 
z
" style="fill:#1f77b4;"/>
   </g>
   <g id="patch_183">
    <path clip-path="url(#pd5e3e5fb08)" d="M 332.425697 224.64 
L 333.924822 224.64 
L 333.924822 78.2074 
L 332.425697 78.2074 
z
" style="fill:#1f77b4;"/>
   </g>
   <g id="patch_184">
    <path clip-path="url(#pd5e3e5fb08)" d="M 333.924822 224.64 
L 335.423946 224.64 
L 335.423946 81.195821 
L 333.924822 81.195821 
z
" style="fill:#1f77b4;"/>
   </g>
   <g id="patch_185">
    <path clip-path="url(#pd5e3e5fb08)" d="M 335.423946 224.64 
L 336.923071 224.64 
L 336.923071 51.311617 
L 335.423946 51.311617 
z
" style="fill:#1f77b4;"/>
   </g>
   <g id="patch_186">
    <path clip-path="url(#pd5e3e5fb08)" d="M 336.923071 224.64 
L 338.422195 224.64 
L 338.422195 58.782668 
L 336.923071 58.782668 
z
" style="fill:#1f77b4;"/>
   </g>
   <g id="patch_187">
    <path clip-path="url(#pd5e3e5fb08)" d="M 338.422195 224.64 
L 339.921319 224.64 
L 339.921319 73.72477 
L 338.422195 73.72477 
z
" style="fill:#1f77b4;"/>
   </g>
   <g id="patch_188">
    <path clip-path="url(#pd5e3e5fb08)" d="M 339.921319 224.64 
L 341.420444 224.64 
L 341.420444 67.747929 
L 339.921319 67.747929 
z
" style="fill:#1f77b4;"/>
   </g>
   <g id="patch_189">
    <path clip-path="url(#pd5e3e5fb08)" d="M 341.420444 224.64 
L 342.919568 224.64 
L 342.919568 49.817406 
L 341.420444 49.817406 
z
" style="fill:#1f77b4;"/>
   </g>
   <g id="patch_190">
    <path clip-path="url(#pd5e3e5fb08)" d="M 342.919568 224.64 
L 344.418693 224.64 
L 344.418693 67.747929 
L 342.919568 67.747929 
z
" style="fill:#1f77b4;"/>
   </g>
   <g id="patch_191">
    <path clip-path="url(#pd5e3e5fb08)" d="M 344.418693 224.64 
L 345.917817 224.64 
L 345.917817 46.828986 
L 344.418693 46.828986 
z
" style="fill:#1f77b4;"/>
   </g>
   <g id="patch_192">
    <path clip-path="url(#pd5e3e5fb08)" d="M 345.917817 224.64 
L 347.416941 224.64 
L 347.416941 66.253719 
L 345.917817 66.253719 
z
" style="fill:#1f77b4;"/>
   </g>
   <g id="patch_193">
    <path clip-path="url(#pd5e3e5fb08)" d="M 347.416941 224.64 
L 348.916066 224.64 
L 348.916066 66.253719 
L 347.416941 66.253719 
z
" style="fill:#1f77b4;"/>
   </g>
   <g id="patch_194">
    <path clip-path="url(#pd5e3e5fb08)" d="M 348.916066 224.64 
L 350.41519 224.64 
L 350.41519 51.311617 
L 348.916066 51.311617 
z
" style="fill:#1f77b4;"/>
   </g>
   <g id="patch_195">
    <path clip-path="url(#pd5e3e5fb08)" d="M 350.41519 224.64 
L 351.914315 224.64 
L 351.914315 52.805827 
L 350.41519 52.805827 
z
" style="fill:#1f77b4;"/>
   </g>
   <g id="patch_196">
    <path clip-path="url(#pd5e3e5fb08)" d="M 351.914315 224.64 
L 353.413439 224.64 
L 353.413439 42.346355 
L 351.914315 42.346355 
z
" style="fill:#1f77b4;"/>
   </g>
   <g id="patch_197">
    <path clip-path="url(#pd5e3e5fb08)" d="M 353.413439 224.64 
L 354.912563 224.64 
L 354.912563 18.438992 
L 353.413439 18.438992 
z
" style="fill:#1f77b4;"/>
   </g>
   <g id="patch_198">
    <path clip-path="url(#pd5e3e5fb08)" d="M 354.912563 224.64 
L 356.411688 224.64 
L 356.411688 21.427412 
L 354.912563 21.427412 
z
" style="fill:#1f77b4;"/>
   </g>
   <g id="patch_199">
    <path clip-path="url(#pd5e3e5fb08)" d="M 356.411688 224.64 
L 357.910812 224.64 
L 357.910812 31.886884 
L 356.411688 31.886884 
z
" style="fill:#1f77b4;"/>
   </g>
   <g id="patch_200">
    <path clip-path="url(#pd5e3e5fb08)" d="M 357.910812 224.64 
L 359.409937 224.64 
L 359.409937 22.921623 
L 357.910812 22.921623 
z
" style="fill:#1f77b4;"/>
   </g>
   <g id="patch_201">
    <path clip-path="url(#pd5e3e5fb08)" d="M 359.409937 224.64 
L 360.909061 224.64 
L 360.909061 46.828986 
L 359.409937 46.828986 
z
" style="fill:#1f77b4;"/>
   </g>
   <g id="patch_202">
    <path clip-path="url(#pd5e3e5fb08)" d="M 360.909061 224.64 
L 362.408186 224.64 
L 362.408186 58.782668 
L 360.909061 58.782668 
z
" style="fill:#1f77b4;"/>
   </g>
   <g id="matplotlib.axis_1">
    <g id="xtick_1">
     <g id="line2d_1">
      <defs>
       <path d="M 0 0 
L 0 3.5 
" id="me2bac93890" style="stroke:#000000;stroke-width:0.8;"/>
      </defs>
      <g>
       <use style="stroke:#000000;stroke-width:0.8;" x="58.046307" xlink:href="#me2bac93890" y="224.64"/>
      </g>
     </g>
     <g id="text_1">
      <!-- −100 -->
      <defs>
       <path d="M 10.59375 35.5 
L 73.1875 35.5 
L 73.1875 27.203125 
L 10.59375 27.203125 
z
" id="DejaVuSans-8722"/>
       <path d="M 12.40625 8.296875 
L 28.515625 8.296875 
L 28.515625 63.921875 
L 10.984375 60.40625 
L 10.984375 69.390625 
L 28.421875 72.90625 
L 38.28125 72.90625 
L 38.28125 8.296875 
L 54.390625 8.296875 
L 54.390625 0 
L 12.40625 0 
z
" id="DejaVuSans-49"/>
       <path d="M 31.78125 66.40625 
Q 24.171875 66.40625 20.328125 58.90625 
Q 16.5 51.421875 16.5 36.375 
Q 16.5 21.390625 20.328125 13.890625 
Q 24.171875 6.390625 31.78125 6.390625 
Q 39.453125 6.390625 43.28125 13.890625 
Q 47.125 21.390625 47.125 36.375 
Q 47.125 51.421875 43.28125 58.90625 
Q 39.453125 66.40625 31.78125 66.40625 
z
M 31.78125 74.21875 
Q 44.046875 74.21875 50.515625 64.515625 
Q 56.984375 54.828125 56.984375 36.375 
Q 56.984375 17.96875 50.515625 8.265625 
Q 44.046875 -1.421875 31.78125 -1.421875 
Q 19.53125 -1.421875 13.0625 8.265625 
Q 6.59375 17.96875 6.59375 36.375 
Q 6.59375 54.828125 13.0625 64.515625 
Q 19.53125 74.21875 31.78125 74.21875 
z
" id="DejaVuSans-48"/>
      </defs>
      <g transform="translate(44.312713 239.238437)scale(0.1 -0.1)">
       <use xlink:href="#DejaVuSans-8722"/>
       <use x="83.789062" xlink:href="#DejaVuSans-49"/>
       <use x="147.412109" xlink:href="#DejaVuSans-48"/>
       <use x="211.035156" xlink:href="#DejaVuSans-48"/>
      </g>
     </g>
    </g>
    <g id="xtick_2">
     <g id="line2d_2">
      <g>
       <use style="stroke:#000000;stroke-width:0.8;" x="96.110794" xlink:href="#me2bac93890" y="224.64"/>
      </g>
     </g>
     <g id="text_2">
      <!-- −75 -->
      <defs>
       <path d="M 8.203125 72.90625 
L 55.078125 72.90625 
L 55.078125 68.703125 
L 28.609375 0 
L 18.3125 0 
L 43.21875 64.59375 
L 8.203125 64.59375 
z
" id="DejaVuSans-55"/>
       <path d="M 10.796875 72.90625 
L 49.515625 72.90625 
L 49.515625 64.59375 
L 19.828125 64.59375 
L 19.828125 46.734375 
Q 21.96875 47.46875 24.109375 47.828125 
Q 26.265625 48.1875 28.421875 48.1875 
Q 40.625 48.1875 47.75 41.5 
Q 54.890625 34.8125 54.890625 23.390625 
Q 54.890625 11.625 47.5625 5.09375 
Q 40.234375 -1.421875 26.90625 -1.421875 
Q 22.3125 -1.421875 17.546875 -0.640625 
Q 12.796875 0.140625 7.71875 1.703125 
L 7.71875 11.625 
Q 12.109375 9.234375 16.796875 8.0625 
Q 21.484375 6.890625 26.703125 6.890625 
Q 35.15625 6.890625 40.078125 11.328125 
Q 45.015625 15.765625 45.015625 23.390625 
Q 45.015625 31 40.078125 35.4375 
Q 35.15625 39.890625 26.703125 39.890625 
Q 22.75 39.890625 18.8125 39.015625 
Q 14.890625 38.140625 10.796875 36.28125 
z
" id="DejaVuSans-53"/>
      </defs>
      <g transform="translate(85.55845 239.238437)scale(0.1 -0.1)">
       <use xlink:href="#DejaVuSans-8722"/>
       <use x="83.789062" xlink:href="#DejaVuSans-55"/>
       <use x="147.412109" xlink:href="#DejaVuSans-53"/>
      </g>
     </g>
    </g>
    <g id="xtick_3">
     <g id="line2d_3">
      <g>
       <use style="stroke:#000000;stroke-width:0.8;" x="134.17528" xlink:href="#me2bac93890" y="224.64"/>
      </g>
     </g>
     <g id="text_3">
      <!-- −50 -->
      <g transform="translate(123.622937 239.238437)scale(0.1 -0.1)">
       <use xlink:href="#DejaVuSans-8722"/>
       <use x="83.789062" xlink:href="#DejaVuSans-53"/>
       <use x="147.412109" xlink:href="#DejaVuSans-48"/>
      </g>
     </g>
    </g>
    <g id="xtick_4">
     <g id="line2d_4">
      <g>
       <use style="stroke:#000000;stroke-width:0.8;" x="172.239767" xlink:href="#me2bac93890" y="224.64"/>
      </g>
     </g>
     <g id="text_4">
      <!-- −25 -->
      <defs>
       <path d="M 19.1875 8.296875 
L 53.609375 8.296875 
L 53.609375 0 
L 7.328125 0 
L 7.328125 8.296875 
Q 12.9375 14.109375 22.625 23.890625 
Q 32.328125 33.6875 34.8125 36.53125 
Q 39.546875 41.84375 41.421875 45.53125 
Q 43.3125 49.21875 43.3125 52.78125 
Q 43.3125 58.59375 39.234375 62.25 
Q 35.15625 65.921875 28.609375 65.921875 
Q 23.96875 65.921875 18.8125 64.3125 
Q 13.671875 62.703125 7.8125 59.421875 
L 7.8125 69.390625 
Q 13.765625 71.78125 18.9375 73 
Q 24.125 74.21875 28.421875 74.21875 
Q 39.75 74.21875 46.484375 68.546875 
Q 53.21875 62.890625 53.21875 53.421875 
Q 53.21875 48.921875 51.53125 44.890625 
Q 49.859375 40.875 45.40625 35.40625 
Q 44.1875 33.984375 37.640625 27.21875 
Q 31.109375 20.453125 19.1875 8.296875 
z
" id="DejaVuSans-50"/>
      </defs>
      <g transform="translate(161.687423 239.238437)scale(0.1 -0.1)">
       <use xlink:href="#DejaVuSans-8722"/>
       <use x="83.789062" xlink:href="#DejaVuSans-50"/>
       <use x="147.412109" xlink:href="#DejaVuSans-53"/>
      </g>
     </g>
    </g>
    <g id="xtick_5">
     <g id="line2d_5">
      <g>
       <use style="stroke:#000000;stroke-width:0.8;" x="210.304254" xlink:href="#me2bac93890" y="224.64"/>
      </g>
     </g>
     <g id="text_5">
      <!-- 0 -->
      <g transform="translate(207.123004 239.238437)scale(0.1 -0.1)">
       <use xlink:href="#DejaVuSans-48"/>
      </g>
     </g>
    </g>
    <g id="xtick_6">
     <g id="line2d_6">
      <g>
       <use style="stroke:#000000;stroke-width:0.8;" x="248.368741" xlink:href="#me2bac93890" y="224.64"/>
      </g>
     </g>
     <g id="text_6">
      <!-- 25 -->
      <g transform="translate(242.006241 239.238437)scale(0.1 -0.1)">
       <use xlink:href="#DejaVuSans-50"/>
       <use x="63.623047" xlink:href="#DejaVuSans-53"/>
      </g>
     </g>
    </g>
    <g id="xtick_7">
     <g id="line2d_7">
      <g>
       <use style="stroke:#000000;stroke-width:0.8;" x="286.433228" xlink:href="#me2bac93890" y="224.64"/>
      </g>
     </g>
     <g id="text_7">
      <!-- 50 -->
      <g transform="translate(280.070728 239.238437)scale(0.1 -0.1)">
       <use xlink:href="#DejaVuSans-53"/>
       <use x="63.623047" xlink:href="#DejaVuSans-48"/>
      </g>
     </g>
    </g>
    <g id="xtick_8">
     <g id="line2d_8">
      <g>
       <use style="stroke:#000000;stroke-width:0.8;" x="324.497714" xlink:href="#me2bac93890" y="224.64"/>
      </g>
     </g>
     <g id="text_8">
      <!-- 75 -->
      <g transform="translate(318.135214 239.238437)scale(0.1 -0.1)">
       <use xlink:href="#DejaVuSans-55"/>
       <use x="63.623047" xlink:href="#DejaVuSans-53"/>
      </g>
     </g>
    </g>
    <g id="xtick_9">
     <g id="line2d_9">
      <g>
       <use style="stroke:#000000;stroke-width:0.8;" x="362.562201" xlink:href="#me2bac93890" y="224.64"/>
      </g>
     </g>
     <g id="text_9">
      <!-- 100 -->
      <g transform="translate(353.018451 239.238437)scale(0.1 -0.1)">
       <use xlink:href="#DejaVuSans-49"/>
       <use x="63.623047" xlink:href="#DejaVuSans-48"/>
       <use x="127.246094" xlink:href="#DejaVuSans-48"/>
      </g>
     </g>
    </g>
   </g>
   <g id="matplotlib.axis_2">
    <g id="ytick_1">
     <g id="line2d_10">
      <defs>
       <path d="M 0 0 
L -3.5 0 
" id="m3c81303be2" style="stroke:#000000;stroke-width:0.8;"/>
      </defs>
      <g>
       <use style="stroke:#000000;stroke-width:0.8;" x="42.828125" xlink:href="#m3c81303be2" y="224.64"/>
      </g>
     </g>
     <g id="text_10">
      <!-- 0.000 -->
      <defs>
       <path d="M 10.6875 12.40625 
L 21 12.40625 
L 21 0 
L 10.6875 0 
z
" id="DejaVuSans-46"/>
      </defs>
      <g transform="translate(7.2 228.439219)scale(0.1 -0.1)">
       <use xlink:href="#DejaVuSans-48"/>
       <use x="63.623047" xlink:href="#DejaVuSans-46"/>
       <use x="95.410156" xlink:href="#DejaVuSans-48"/>
       <use x="159.033203" xlink:href="#DejaVuSans-48"/>
       <use x="222.65625" xlink:href="#DejaVuSans-48"/>
      </g>
     </g>
    </g>
    <g id="ytick_2">
     <g id="line2d_11">
      <g>
       <use style="stroke:#000000;stroke-width:0.8;" x="42.828125" xlink:href="#m3c81303be2" y="195.216157"/>
      </g>
     </g>
     <g id="text_11">
      <!-- 0.002 -->
      <g transform="translate(7.2 199.015376)scale(0.1 -0.1)">
       <use xlink:href="#DejaVuSans-48"/>
       <use x="63.623047" xlink:href="#DejaVuSans-46"/>
       <use x="95.410156" xlink:href="#DejaVuSans-48"/>
       <use x="159.033203" xlink:href="#DejaVuSans-48"/>
       <use x="222.65625" xlink:href="#DejaVuSans-50"/>
      </g>
     </g>
    </g>
    <g id="ytick_3">
     <g id="line2d_12">
      <g>
       <use style="stroke:#000000;stroke-width:0.8;" x="42.828125" xlink:href="#m3c81303be2" y="165.792314"/>
      </g>
     </g>
     <g id="text_12">
      <!-- 0.004 -->
      <defs>
       <path d="M 37.796875 64.3125 
L 12.890625 25.390625 
L 37.796875 25.390625 
z
M 35.203125 72.90625 
L 47.609375 72.90625 
L 47.609375 25.390625 
L 58.015625 25.390625 
L 58.015625 17.1875 
L 47.609375 17.1875 
L 47.609375 0 
L 37.796875 0 
L 37.796875 17.1875 
L 4.890625 17.1875 
L 4.890625 26.703125 
z
" id="DejaVuSans-52"/>
      </defs>
      <g transform="translate(7.2 169.591532)scale(0.1 -0.1)">
       <use xlink:href="#DejaVuSans-48"/>
       <use x="63.623047" xlink:href="#DejaVuSans-46"/>
       <use x="95.410156" xlink:href="#DejaVuSans-48"/>
       <use x="159.033203" xlink:href="#DejaVuSans-48"/>
       <use x="222.65625" xlink:href="#DejaVuSans-52"/>
      </g>
     </g>
    </g>
    <g id="ytick_4">
     <g id="line2d_13">
      <g>
       <use style="stroke:#000000;stroke-width:0.8;" x="42.828125" xlink:href="#m3c81303be2" y="136.36847"/>
      </g>
     </g>
     <g id="text_13">
      <!-- 0.006 -->
      <defs>
       <path d="M 33.015625 40.375 
Q 26.375 40.375 22.484375 35.828125 
Q 18.609375 31.296875 18.609375 23.390625 
Q 18.609375 15.53125 22.484375 10.953125 
Q 26.375 6.390625 33.015625 6.390625 
Q 39.65625 6.390625 43.53125 10.953125 
Q 47.40625 15.53125 47.40625 23.390625 
Q 47.40625 31.296875 43.53125 35.828125 
Q 39.65625 40.375 33.015625 40.375 
z
M 52.59375 71.296875 
L 52.59375 62.3125 
Q 48.875 64.0625 45.09375 64.984375 
Q 41.3125 65.921875 37.59375 65.921875 
Q 27.828125 65.921875 22.671875 59.328125 
Q 17.53125 52.734375 16.796875 39.40625 
Q 19.671875 43.65625 24.015625 45.921875 
Q 28.375 48.1875 33.59375 48.1875 
Q 44.578125 48.1875 50.953125 41.515625 
Q 57.328125 34.859375 57.328125 23.390625 
Q 57.328125 12.15625 50.6875 5.359375 
Q 44.046875 -1.421875 33.015625 -1.421875 
Q 20.359375 -1.421875 13.671875 8.265625 
Q 6.984375 17.96875 6.984375 36.375 
Q 6.984375 53.65625 15.1875 63.9375 
Q 23.390625 74.21875 37.203125 74.21875 
Q 40.921875 74.21875 44.703125 73.484375 
Q 48.484375 72.75 52.59375 71.296875 
z
" id="DejaVuSans-54"/>
      </defs>
      <g transform="translate(7.2 140.167689)scale(0.1 -0.1)">
       <use xlink:href="#DejaVuSans-48"/>
       <use x="63.623047" xlink:href="#DejaVuSans-46"/>
       <use x="95.410156" xlink:href="#DejaVuSans-48"/>
       <use x="159.033203" xlink:href="#DejaVuSans-48"/>
       <use x="222.65625" xlink:href="#DejaVuSans-54"/>
      </g>
     </g>
    </g>
    <g id="ytick_5">
     <g id="line2d_14">
      <g>
       <use style="stroke:#000000;stroke-width:0.8;" x="42.828125" xlink:href="#m3c81303be2" y="106.944627"/>
      </g>
     </g>
     <g id="text_14">
      <!-- 0.008 -->
      <defs>
       <path d="M 31.78125 34.625 
Q 24.75 34.625 20.71875 30.859375 
Q 16.703125 27.09375 16.703125 20.515625 
Q 16.703125 13.921875 20.71875 10.15625 
Q 24.75 6.390625 31.78125 6.390625 
Q 38.8125 6.390625 42.859375 10.171875 
Q 46.921875 13.96875 46.921875 20.515625 
Q 46.921875 27.09375 42.890625 30.859375 
Q 38.875 34.625 31.78125 34.625 
z
M 21.921875 38.8125 
Q 15.578125 40.375 12.03125 44.71875 
Q 8.5 49.078125 8.5 55.328125 
Q 8.5 64.0625 14.71875 69.140625 
Q 20.953125 74.21875 31.78125 74.21875 
Q 42.671875 74.21875 48.875 69.140625 
Q 55.078125 64.0625 55.078125 55.328125 
Q 55.078125 49.078125 51.53125 44.71875 
Q 48 40.375 41.703125 38.8125 
Q 48.828125 37.15625 52.796875 32.3125 
Q 56.78125 27.484375 56.78125 20.515625 
Q 56.78125 9.90625 50.3125 4.234375 
Q 43.84375 -1.421875 31.78125 -1.421875 
Q 19.734375 -1.421875 13.25 4.234375 
Q 6.78125 9.90625 6.78125 20.515625 
Q 6.78125 27.484375 10.78125 32.3125 
Q 14.796875 37.15625 21.921875 38.8125 
z
M 18.3125 54.390625 
Q 18.3125 48.734375 21.84375 45.5625 
Q 25.390625 42.390625 31.78125 42.390625 
Q 38.140625 42.390625 41.71875 45.5625 
Q 45.3125 48.734375 45.3125 54.390625 
Q 45.3125 60.0625 41.71875 63.234375 
Q 38.140625 66.40625 31.78125 66.40625 
Q 25.390625 66.40625 21.84375 63.234375 
Q 18.3125 60.0625 18.3125 54.390625 
z
" id="DejaVuSans-56"/>
      </defs>
      <g transform="translate(7.2 110.743846)scale(0.1 -0.1)">
       <use xlink:href="#DejaVuSans-48"/>
       <use x="63.623047" xlink:href="#DejaVuSans-46"/>
       <use x="95.410156" xlink:href="#DejaVuSans-48"/>
       <use x="159.033203" xlink:href="#DejaVuSans-48"/>
       <use x="222.65625" xlink:href="#DejaVuSans-56"/>
      </g>
     </g>
    </g>
    <g id="ytick_6">
     <g id="line2d_15">
      <g>
       <use style="stroke:#000000;stroke-width:0.8;" x="42.828125" xlink:href="#m3c81303be2" y="77.520784"/>
      </g>
     </g>
     <g id="text_15">
      <!-- 0.010 -->
      <g transform="translate(7.2 81.320003)scale(0.1 -0.1)">
       <use xlink:href="#DejaVuSans-48"/>
       <use x="63.623047" xlink:href="#DejaVuSans-46"/>
       <use x="95.410156" xlink:href="#DejaVuSans-48"/>
       <use x="159.033203" xlink:href="#DejaVuSans-49"/>
       <use x="222.65625" xlink:href="#DejaVuSans-48"/>
      </g>
     </g>
    </g>
    <g id="ytick_7">
     <g id="line2d_16">
      <g>
       <use style="stroke:#000000;stroke-width:0.8;" x="42.828125" xlink:href="#m3c81303be2" y="48.096941"/>
      </g>
     </g>
     <g id="text_16">
      <!-- 0.012 -->
      <g transform="translate(7.2 51.89616)scale(0.1 -0.1)">
       <use xlink:href="#DejaVuSans-48"/>
       <use x="63.623047" xlink:href="#DejaVuSans-46"/>
       <use x="95.410156" xlink:href="#DejaVuSans-48"/>
       <use x="159.033203" xlink:href="#DejaVuSans-49"/>
       <use x="222.65625" xlink:href="#DejaVuSans-50"/>
      </g>
     </g>
    </g>
    <g id="ytick_8">
     <g id="line2d_17">
      <g>
       <use style="stroke:#000000;stroke-width:0.8;" x="42.828125" xlink:href="#m3c81303be2" y="18.673098"/>
      </g>
     </g>
     <g id="text_17">
      <!-- 0.014 -->
      <g transform="translate(7.2 22.472316)scale(0.1 -0.1)">
       <use xlink:href="#DejaVuSans-48"/>
       <use x="63.623047" xlink:href="#DejaVuSans-46"/>
       <use x="95.410156" xlink:href="#DejaVuSans-48"/>
       <use x="159.033203" xlink:href="#DejaVuSans-49"/>
       <use x="222.65625" xlink:href="#DejaVuSans-52"/>
      </g>
     </g>
    </g>
   </g>
   <g id="line2d_18">
    <path clip-path="url(#pd5e3e5fb08)" d="M 58.046307 224.64 
L 62.309529 219.384779 
L 66.572752 214.471261 
L 70.835974 209.887565 
L 75.099197 205.621812 
L 79.362419 201.662121 
L 83.625642 197.996612 
L 88.041122 194.497646 
L 92.456603 191.288307 
L 96.872083 188.355395 
L 101.287564 185.68571 
L 105.855302 183.186918 
L 110.423041 180.941081 
L 115.143037 178.870607 
L 120.015291 176.983195 
L 124.887546 175.332052 
L 130.064316 173.816758 
L 135.393344 172.492155 
L 141.026888 171.325905 
L 146.964948 170.32734 
L 153.359782 169.480574 
L 160.363647 168.778812 
L 168.585576 168.186855 
L 179.243633 167.659081 
L 203.452646 166.535818 
L 211.674575 165.884588 
L 218.678441 165.114493 
L 225.073275 164.191 
L 231.011335 163.108937 
L 236.492621 161.889706 
L 241.821649 160.476833 
L 246.846161 158.918201 
L 251.718416 157.178097 
L 256.438412 155.26072 
L 261.158408 153.099073 
L 265.726147 150.759393 
L 270.141627 148.252159 
L 274.557108 145.490195 
L 278.972588 142.460299 
L 283.235811 139.268271 
L 287.499033 135.802286 
L 291.762256 132.050464 
L 296.025478 128.000925 
L 300.288701 123.641788 
L 304.551923 118.961173 
L 308.815146 113.947199 
L 313.078368 108.587986 
L 317.341591 102.871654 
L 321.604813 96.786323 
L 325.868036 90.320111 
L 330.283516 83.208762 
L 334.698997 75.662897 
L 339.114477 67.669319 
L 343.529958 59.214826 
L 347.945438 50.28622 
L 352.513177 40.536764 
L 357.080915 30.251196 
L 361.648653 19.414903 
L 362.409943 17.554286 
L 362.409943 17.554286 
" style="fill:none;stroke:#ff0000;stroke-linecap:square;stroke-width:2;"/>
   </g>
   <g id="patch_203">
    <path d="M 42.828125 224.64 
L 42.828125 7.2 
" style="fill:none;stroke:#000000;stroke-linecap:square;stroke-linejoin:miter;stroke-width:0.8;"/>
   </g>
   <g id="patch_204">
    <path d="M 377.628125 224.64 
L 377.628125 7.2 
" style="fill:none;stroke:#000000;stroke-linecap:square;stroke-linejoin:miter;stroke-width:0.8;"/>
   </g>
   <g id="patch_205">
    <path d="M 42.828125 224.64 
L 377.628125 224.64 
" style="fill:none;stroke:#000000;stroke-linecap:square;stroke-linejoin:miter;stroke-width:0.8;"/>
   </g>
   <g id="patch_206">
    <path d="M 42.828125 7.2 
L 377.628125 7.2 
" style="fill:none;stroke:#000000;stroke-linecap:square;stroke-linejoin:miter;stroke-width:0.8;"/>
   </g>
   <g id="legend_1">
    <g id="patch_207">
     <path d="M 49.828125 44.55625 
L 195.34375 44.55625 
Q 197.34375 44.55625 197.34375 42.55625 
L 197.34375 14.2 
Q 197.34375 12.2 195.34375 12.2 
L 49.828125 12.2 
Q 47.828125 12.2 47.828125 14.2 
L 47.828125 42.55625 
Q 47.828125 44.55625 49.828125 44.55625 
z
" style="fill:#ffffff;opacity:0.8;stroke:#cccccc;stroke-linejoin:miter;"/>
    </g>
    <g id="line2d_19">
     <path d="M 51.828125 20.298437 
L 71.828125 20.298437 
" style="fill:none;stroke:#ff0000;stroke-linecap:square;stroke-width:2;"/>
    </g>
    <g id="line2d_20"/>
    <g id="text_18">
     <!-- probability distribution -->
     <defs>
      <path d="M 18.109375 8.203125 
L 18.109375 -20.796875 
L 9.078125 -20.796875 
L 9.078125 54.6875 
L 18.109375 54.6875 
L 18.109375 46.390625 
Q 20.953125 51.265625 25.265625 53.625 
Q 29.59375 56 35.59375 56 
Q 45.5625 56 51.78125 48.09375 
Q 58.015625 40.1875 58.015625 27.296875 
Q 58.015625 14.40625 51.78125 6.484375 
Q 45.5625 -1.421875 35.59375 -1.421875 
Q 29.59375 -1.421875 25.265625 0.953125 
Q 20.953125 3.328125 18.109375 8.203125 
z
M 48.6875 27.296875 
Q 48.6875 37.203125 44.609375 42.84375 
Q 40.53125 48.484375 33.40625 48.484375 
Q 26.265625 48.484375 22.1875 42.84375 
Q 18.109375 37.203125 18.109375 27.296875 
Q 18.109375 17.390625 22.1875 11.75 
Q 26.265625 6.109375 33.40625 6.109375 
Q 40.53125 6.109375 44.609375 11.75 
Q 48.6875 17.390625 48.6875 27.296875 
z
" id="DejaVuSans-112"/>
      <path d="M 41.109375 46.296875 
Q 39.59375 47.171875 37.8125 47.578125 
Q 36.03125 48 33.890625 48 
Q 26.265625 48 22.1875 43.046875 
Q 18.109375 38.09375 18.109375 28.8125 
L 18.109375 0 
L 9.078125 0 
L 9.078125 54.6875 
L 18.109375 54.6875 
L 18.109375 46.1875 
Q 20.953125 51.171875 25.484375 53.578125 
Q 30.03125 56 36.53125 56 
Q 37.453125 56 38.578125 55.875 
Q 39.703125 55.765625 41.0625 55.515625 
z
" id="DejaVuSans-114"/>
      <path d="M 30.609375 48.390625 
Q 23.390625 48.390625 19.1875 42.75 
Q 14.984375 37.109375 14.984375 27.296875 
Q 14.984375 17.484375 19.15625 11.84375 
Q 23.34375 6.203125 30.609375 6.203125 
Q 37.796875 6.203125 41.984375 11.859375 
Q 46.1875 17.53125 46.1875 27.296875 
Q 46.1875 37.015625 41.984375 42.703125 
Q 37.796875 48.390625 30.609375 48.390625 
z
M 30.609375 56 
Q 42.328125 56 49.015625 48.375 
Q 55.71875 40.765625 55.71875 27.296875 
Q 55.71875 13.875 49.015625 6.21875 
Q 42.328125 -1.421875 30.609375 -1.421875 
Q 18.84375 -1.421875 12.171875 6.21875 
Q 5.515625 13.875 5.515625 27.296875 
Q 5.515625 40.765625 12.171875 48.375 
Q 18.84375 56 30.609375 56 
z
" id="DejaVuSans-111"/>
      <path d="M 48.6875 27.296875 
Q 48.6875 37.203125 44.609375 42.84375 
Q 40.53125 48.484375 33.40625 48.484375 
Q 26.265625 48.484375 22.1875 42.84375 
Q 18.109375 37.203125 18.109375 27.296875 
Q 18.109375 17.390625 22.1875 11.75 
Q 26.265625 6.109375 33.40625 6.109375 
Q 40.53125 6.109375 44.609375 11.75 
Q 48.6875 17.390625 48.6875 27.296875 
z
M 18.109375 46.390625 
Q 20.953125 51.265625 25.265625 53.625 
Q 29.59375 56 35.59375 56 
Q 45.5625 56 51.78125 48.09375 
Q 58.015625 40.1875 58.015625 27.296875 
Q 58.015625 14.40625 51.78125 6.484375 
Q 45.5625 -1.421875 35.59375 -1.421875 
Q 29.59375 -1.421875 25.265625 0.953125 
Q 20.953125 3.328125 18.109375 8.203125 
L 18.109375 0 
L 9.078125 0 
L 9.078125 75.984375 
L 18.109375 75.984375 
z
" id="DejaVuSans-98"/>
      <path d="M 34.28125 27.484375 
Q 23.390625 27.484375 19.1875 25 
Q 14.984375 22.515625 14.984375 16.5 
Q 14.984375 11.71875 18.140625 8.90625 
Q 21.296875 6.109375 26.703125 6.109375 
Q 34.1875 6.109375 38.703125 11.40625 
Q 43.21875 16.703125 43.21875 25.484375 
L 43.21875 27.484375 
z
M 52.203125 31.203125 
L 52.203125 0 
L 43.21875 0 
L 43.21875 8.296875 
Q 40.140625 3.328125 35.546875 0.953125 
Q 30.953125 -1.421875 24.3125 -1.421875 
Q 15.921875 -1.421875 10.953125 3.296875 
Q 6 8.015625 6 15.921875 
Q 6 25.140625 12.171875 29.828125 
Q 18.359375 34.515625 30.609375 34.515625 
L 43.21875 34.515625 
L 43.21875 35.40625 
Q 43.21875 41.609375 39.140625 45 
Q 35.0625 48.390625 27.6875 48.390625 
Q 23 48.390625 18.546875 47.265625 
Q 14.109375 46.140625 10.015625 43.890625 
L 10.015625 52.203125 
Q 14.9375 54.109375 19.578125 55.046875 
Q 24.21875 56 28.609375 56 
Q 40.484375 56 46.34375 49.84375 
Q 52.203125 43.703125 52.203125 31.203125 
z
" id="DejaVuSans-97"/>
      <path d="M 9.421875 54.6875 
L 18.40625 54.6875 
L 18.40625 0 
L 9.421875 0 
z
M 9.421875 75.984375 
L 18.40625 75.984375 
L 18.40625 64.59375 
L 9.421875 64.59375 
z
" id="DejaVuSans-105"/>
      <path d="M 9.421875 75.984375 
L 18.40625 75.984375 
L 18.40625 0 
L 9.421875 0 
z
" id="DejaVuSans-108"/>
      <path d="M 18.3125 70.21875 
L 18.3125 54.6875 
L 36.8125 54.6875 
L 36.8125 47.703125 
L 18.3125 47.703125 
L 18.3125 18.015625 
Q 18.3125 11.328125 20.140625 9.421875 
Q 21.96875 7.515625 27.59375 7.515625 
L 36.8125 7.515625 
L 36.8125 0 
L 27.59375 0 
Q 17.1875 0 13.234375 3.875 
Q 9.28125 7.765625 9.28125 18.015625 
L 9.28125 47.703125 
L 2.6875 47.703125 
L 2.6875 54.6875 
L 9.28125 54.6875 
L 9.28125 70.21875 
z
" id="DejaVuSans-116"/>
      <path d="M 32.171875 -5.078125 
Q 28.375 -14.84375 24.75 -17.8125 
Q 21.140625 -20.796875 15.09375 -20.796875 
L 7.90625 -20.796875 
L 7.90625 -13.28125 
L 13.1875 -13.28125 
Q 16.890625 -13.28125 18.9375 -11.515625 
Q 21 -9.765625 23.484375 -3.21875 
L 25.09375 0.875 
L 2.984375 54.6875 
L 12.5 54.6875 
L 29.59375 11.921875 
L 46.6875 54.6875 
L 56.203125 54.6875 
z
" id="DejaVuSans-121"/>
      <path id="DejaVuSans-32"/>
      <path d="M 45.40625 46.390625 
L 45.40625 75.984375 
L 54.390625 75.984375 
L 54.390625 0 
L 45.40625 0 
L 45.40625 8.203125 
Q 42.578125 3.328125 38.25 0.953125 
Q 33.9375 -1.421875 27.875 -1.421875 
Q 17.96875 -1.421875 11.734375 6.484375 
Q 5.515625 14.40625 5.515625 27.296875 
Q 5.515625 40.1875 11.734375 48.09375 
Q 17.96875 56 27.875 56 
Q 33.9375 56 38.25 53.625 
Q 42.578125 51.265625 45.40625 46.390625 
z
M 14.796875 27.296875 
Q 14.796875 17.390625 18.875 11.75 
Q 22.953125 6.109375 30.078125 6.109375 
Q 37.203125 6.109375 41.296875 11.75 
Q 45.40625 17.390625 45.40625 27.296875 
Q 45.40625 37.203125 41.296875 42.84375 
Q 37.203125 48.484375 30.078125 48.484375 
Q 22.953125 48.484375 18.875 42.84375 
Q 14.796875 37.203125 14.796875 27.296875 
z
" id="DejaVuSans-100"/>
      <path d="M 44.28125 53.078125 
L 44.28125 44.578125 
Q 40.484375 46.53125 36.375 47.5 
Q 32.28125 48.484375 27.875 48.484375 
Q 21.1875 48.484375 17.84375 46.4375 
Q 14.5 44.390625 14.5 40.28125 
Q 14.5 37.15625 16.890625 35.375 
Q 19.28125 33.59375 26.515625 31.984375 
L 29.59375 31.296875 
Q 39.15625 29.25 43.1875 25.515625 
Q 47.21875 21.78125 47.21875 15.09375 
Q 47.21875 7.46875 41.1875 3.015625 
Q 35.15625 -1.421875 24.609375 -1.421875 
Q 20.21875 -1.421875 15.453125 -0.5625 
Q 10.6875 0.296875 5.421875 2 
L 5.421875 11.28125 
Q 10.40625 8.6875 15.234375 7.390625 
Q 20.0625 6.109375 24.8125 6.109375 
Q 31.15625 6.109375 34.5625 8.28125 
Q 37.984375 10.453125 37.984375 14.40625 
Q 37.984375 18.0625 35.515625 20.015625 
Q 33.0625 21.96875 24.703125 23.78125 
L 21.578125 24.515625 
Q 13.234375 26.265625 9.515625 29.90625 
Q 5.8125 33.546875 5.8125 39.890625 
Q 5.8125 47.609375 11.28125 51.796875 
Q 16.75 56 26.8125 56 
Q 31.78125 56 36.171875 55.265625 
Q 40.578125 54.546875 44.28125 53.078125 
z
" id="DejaVuSans-115"/>
      <path d="M 8.5 21.578125 
L 8.5 54.6875 
L 17.484375 54.6875 
L 17.484375 21.921875 
Q 17.484375 14.15625 20.5 10.265625 
Q 23.53125 6.390625 29.59375 6.390625 
Q 36.859375 6.390625 41.078125 11.03125 
Q 45.3125 15.671875 45.3125 23.6875 
L 45.3125 54.6875 
L 54.296875 54.6875 
L 54.296875 0 
L 45.3125 0 
L 45.3125 8.40625 
Q 42.046875 3.421875 37.71875 1 
Q 33.40625 -1.421875 27.6875 -1.421875 
Q 18.265625 -1.421875 13.375 4.4375 
Q 8.5 10.296875 8.5 21.578125 
z
M 31.109375 56 
z
" id="DejaVuSans-117"/>
      <path d="M 54.890625 33.015625 
L 54.890625 0 
L 45.90625 0 
L 45.90625 32.71875 
Q 45.90625 40.484375 42.875 44.328125 
Q 39.84375 48.1875 33.796875 48.1875 
Q 26.515625 48.1875 22.3125 43.546875 
Q 18.109375 38.921875 18.109375 30.90625 
L 18.109375 0 
L 9.078125 0 
L 9.078125 54.6875 
L 18.109375 54.6875 
L 18.109375 46.1875 
Q 21.34375 51.125 25.703125 53.5625 
Q 30.078125 56 35.796875 56 
Q 45.21875 56 50.046875 50.171875 
Q 54.890625 44.34375 54.890625 33.015625 
z
" id="DejaVuSans-110"/>
     </defs>
     <g transform="translate(79.828125 23.798437)scale(0.1 -0.1)">
      <use xlink:href="#DejaVuSans-112"/>
      <use x="63.476562" xlink:href="#DejaVuSans-114"/>
      <use x="102.339844" xlink:href="#DejaVuSans-111"/>
      <use x="163.521484" xlink:href="#DejaVuSans-98"/>
      <use x="226.998047" xlink:href="#DejaVuSans-97"/>
      <use x="288.277344" xlink:href="#DejaVuSans-98"/>
      <use x="351.753906" xlink:href="#DejaVuSans-105"/>
      <use x="379.537109" xlink:href="#DejaVuSans-108"/>
      <use x="407.320312" xlink:href="#DejaVuSans-105"/>
      <use x="435.103516" xlink:href="#DejaVuSans-116"/>
      <use x="474.3125" xlink:href="#DejaVuSans-121"/>
      <use x="533.492188" xlink:href="#DejaVuSans-32"/>
      <use x="565.279297" xlink:href="#DejaVuSans-100"/>
      <use x="628.755859" xlink:href="#DejaVuSans-105"/>
      <use x="656.539062" xlink:href="#DejaVuSans-115"/>
      <use x="708.638672" xlink:href="#DejaVuSans-116"/>
      <use x="747.847656" xlink:href="#DejaVuSans-114"/>
      <use x="788.960938" xlink:href="#DejaVuSans-105"/>
      <use x="816.744141" xlink:href="#DejaVuSans-98"/>
      <use x="880.220703" xlink:href="#DejaVuSans-117"/>
      <use x="943.599609" xlink:href="#DejaVuSans-116"/>
      <use x="982.808594" xlink:href="#DejaVuSans-105"/>
      <use x="1010.591797" xlink:href="#DejaVuSans-111"/>
      <use x="1071.773438" xlink:href="#DejaVuSans-110"/>
     </g>
    </g>
    <g id="patch_208">
     <path d="M 51.828125 38.476562 
L 71.828125 38.476562 
L 71.828125 31.476562 
L 51.828125 31.476562 
z
" style="fill:#1f77b4;"/>
    </g>
    <g id="text_19">
     <!-- histogram -->
     <defs>
      <path d="M 54.890625 33.015625 
L 54.890625 0 
L 45.90625 0 
L 45.90625 32.71875 
Q 45.90625 40.484375 42.875 44.328125 
Q 39.84375 48.1875 33.796875 48.1875 
Q 26.515625 48.1875 22.3125 43.546875 
Q 18.109375 38.921875 18.109375 30.90625 
L 18.109375 0 
L 9.078125 0 
L 9.078125 75.984375 
L 18.109375 75.984375 
L 18.109375 46.1875 
Q 21.34375 51.125 25.703125 53.5625 
Q 30.078125 56 35.796875 56 
Q 45.21875 56 50.046875 50.171875 
Q 54.890625 44.34375 54.890625 33.015625 
z
" id="DejaVuSans-104"/>
      <path d="M 45.40625 27.984375 
Q 45.40625 37.75 41.375 43.109375 
Q 37.359375 48.484375 30.078125 48.484375 
Q 22.859375 48.484375 18.828125 43.109375 
Q 14.796875 37.75 14.796875 27.984375 
Q 14.796875 18.265625 18.828125 12.890625 
Q 22.859375 7.515625 30.078125 7.515625 
Q 37.359375 7.515625 41.375 12.890625 
Q 45.40625 18.265625 45.40625 27.984375 
z
M 54.390625 6.78125 
Q 54.390625 -7.171875 48.1875 -13.984375 
Q 42 -20.796875 29.203125 -20.796875 
Q 24.46875 -20.796875 20.265625 -20.09375 
Q 16.0625 -19.390625 12.109375 -17.921875 
L 12.109375 -9.1875 
Q 16.0625 -11.328125 19.921875 -12.34375 
Q 23.78125 -13.375 27.78125 -13.375 
Q 36.625 -13.375 41.015625 -8.765625 
Q 45.40625 -4.15625 45.40625 5.171875 
L 45.40625 9.625 
Q 42.625 4.78125 38.28125 2.390625 
Q 33.9375 0 27.875 0 
Q 17.828125 0 11.671875 7.65625 
Q 5.515625 15.328125 5.515625 27.984375 
Q 5.515625 40.671875 11.671875 48.328125 
Q 17.828125 56 27.875 56 
Q 33.9375 56 38.28125 53.609375 
Q 42.625 51.21875 45.40625 46.390625 
L 45.40625 54.6875 
L 54.390625 54.6875 
z
" id="DejaVuSans-103"/>
      <path d="M 52 44.1875 
Q 55.375 50.25 60.0625 53.125 
Q 64.75 56 71.09375 56 
Q 79.640625 56 84.28125 50.015625 
Q 88.921875 44.046875 88.921875 33.015625 
L 88.921875 0 
L 79.890625 0 
L 79.890625 32.71875 
Q 79.890625 40.578125 77.09375 44.375 
Q 74.3125 48.1875 68.609375 48.1875 
Q 61.625 48.1875 57.5625 43.546875 
Q 53.515625 38.921875 53.515625 30.90625 
L 53.515625 0 
L 44.484375 0 
L 44.484375 32.71875 
Q 44.484375 40.625 41.703125 44.40625 
Q 38.921875 48.1875 33.109375 48.1875 
Q 26.21875 48.1875 22.15625 43.53125 
Q 18.109375 38.875 18.109375 30.90625 
L 18.109375 0 
L 9.078125 0 
L 9.078125 54.6875 
L 18.109375 54.6875 
L 18.109375 46.1875 
Q 21.1875 51.21875 25.484375 53.609375 
Q 29.78125 56 35.6875 56 
Q 41.65625 56 45.828125 52.96875 
Q 50 49.953125 52 44.1875 
z
" id="DejaVuSans-109"/>
     </defs>
     <g transform="translate(79.828125 38.476562)scale(0.1 -0.1)">
      <use xlink:href="#DejaVuSans-104"/>
      <use x="63.378906" xlink:href="#DejaVuSans-105"/>
      <use x="91.162109" xlink:href="#DejaVuSans-115"/>
      <use x="143.261719" xlink:href="#DejaVuSans-116"/>
      <use x="182.470703" xlink:href="#DejaVuSans-111"/>
      <use x="243.652344" xlink:href="#DejaVuSans-103"/>
      <use x="307.128906" xlink:href="#DejaVuSans-114"/>
      <use x="348.242188" xlink:href="#DejaVuSans-97"/>
      <use x="409.521484" xlink:href="#DejaVuSans-109"/>
     </g>
    </g>
   </g>
  </g>
 </g>
 <defs>
  <clipPath id="pd5e3e5fb08">
   <rect height="217.44" width="334.8" x="42.828125" y="7.2"/>
  </clipPath>
 </defs>
</svg>
