<?xml version="1.0" encoding="utf-8" standalone="no"?>
<!DOCTYPE svg PUBLIC "-//W3C//DTD SVG 1.1//EN"
  "http://www.w3.org/Graphics/SVG/1.1/DTD/svg11.dtd">
<!-- Created with matplotlib (https://matplotlib.org/) -->
<svg height="248.518125pt" version="1.1" viewBox="0 0 384.828125 248.518125" width="384.828125pt" xmlns="http://www.w3.org/2000/svg" xmlns:xlink="http://www.w3.org/1999/xlink">
 <defs>
  <style type="text/css">
*{stroke-linecap:butt;stroke-linejoin:round;}
  </style>
 </defs>
 <g id="figure_1">
  <g id="patch_1">
   <path d="M 0 248.518125 
L 384.828125 248.518125 
L 384.828125 0 
L 0 0 
z
" style="fill:none;"/>
  </g>
  <g id="axes_1">
   <g id="patch_2">
    <path d="M 42.828125 224.64 
L 377.628125 224.64 
L 377.628125 7.2 
L 42.828125 7.2 
z
" style="fill:#ffffff;"/>
   </g>
   <g id="patch_3">
    <path clip-path="url(#p73d2637f46)" d="M 62.539604 224.64 
L 64.038918 224.64 
L 64.038918 208.36898 
L 62.539604 208.36898 
z
" style="fill:#1f77b4;"/>
   </g>
   <g id="patch_4">
    <path clip-path="url(#p73d2637f46)" d="M 64.038918 224.64 
L 65.538232 224.64 
L 65.538232 217.244082 
L 64.038918 217.244082 
z
" style="fill:#1f77b4;"/>
   </g>
   <g id="patch_5">
    <path clip-path="url(#p73d2637f46)" d="M 65.538232 224.64 
L 67.037546 224.64 
L 67.037546 214.285714 
L 65.538232 214.285714 
z
" style="fill:#1f77b4;"/>
   </g>
   <g id="patch_6">
    <path clip-path="url(#p73d2637f46)" d="M 67.037546 224.64 
L 68.53686 224.64 
L 68.53686 221.681633 
L 67.037546 221.681633 
z
" style="fill:#1f77b4;"/>
   </g>
   <g id="patch_7">
    <path clip-path="url(#p73d2637f46)" d="M 68.53686 224.64 
L 70.036174 224.64 
L 70.036174 208.36898 
L 68.53686 208.36898 
z
" style="fill:#1f77b4;"/>
   </g>
   <g id="patch_8">
    <path clip-path="url(#p73d2637f46)" d="M 70.036174 224.64 
L 71.535488 224.64 
L 71.535488 208.36898 
L 70.036174 208.36898 
z
" style="fill:#1f77b4;"/>
   </g>
   <g id="patch_9">
    <path clip-path="url(#p73d2637f46)" d="M 71.535488 224.64 
L 73.034802 224.64 
L 73.034802 212.806531 
L 71.535488 212.806531 
z
" style="fill:#1f77b4;"/>
   </g>
   <g id="patch_10">
    <path clip-path="url(#p73d2637f46)" d="M 73.034802 224.64 
L 74.534116 224.64 
L 74.534116 202.452245 
L 73.034802 202.452245 
z
" style="fill:#1f77b4;"/>
   </g>
   <g id="patch_11">
    <path clip-path="url(#p73d2637f46)" d="M 74.534116 224.64 
L 76.03343 224.64 
L 76.03343 214.285714 
L 74.534116 214.285714 
z
" style="fill:#1f77b4;"/>
   </g>
   <g id="patch_12">
    <path clip-path="url(#p73d2637f46)" d="M 76.03343 224.64 
L 77.532744 224.64 
L 77.532744 199.493878 
L 76.03343 199.493878 
z
" style="fill:#1f77b4;"/>
   </g>
   <g id="patch_13">
    <path clip-path="url(#p73d2637f46)" d="M 77.532744 224.64 
L 79.032058 224.64 
L 79.032058 203.931429 
L 77.532744 203.931429 
z
" style="fill:#1f77b4;"/>
   </g>
   <g id="patch_14">
    <path clip-path="url(#p73d2637f46)" d="M 79.032058 224.64 
L 80.531372 224.64 
L 80.531372 202.452245 
L 79.032058 202.452245 
z
" style="fill:#1f77b4;"/>
   </g>
   <g id="patch_15">
    <path clip-path="url(#p73d2637f46)" d="M 80.531372 224.64 
L 82.030686 224.64 
L 82.030686 198.014694 
L 80.531372 198.014694 
z
" style="fill:#1f77b4;"/>
   </g>
   <g id="patch_16">
    <path clip-path="url(#p73d2637f46)" d="M 82.030686 224.64 
L 83.53 224.64 
L 83.53 196.53551 
L 82.030686 196.53551 
z
" style="fill:#1f77b4;"/>
   </g>
   <g id="patch_17">
    <path clip-path="url(#p73d2637f46)" d="M 83.53 224.64 
L 85.029314 224.64 
L 85.029314 208.36898 
L 83.53 208.36898 
z
" style="fill:#1f77b4;"/>
   </g>
   <g id="patch_18">
    <path clip-path="url(#p73d2637f46)" d="M 85.029314 224.64 
L 86.528628 224.64 
L 86.528628 189.139592 
L 85.029314 189.139592 
z
" style="fill:#1f77b4;"/>
   </g>
   <g id="patch_19">
    <path clip-path="url(#p73d2637f46)" d="M 86.528628 224.64 
L 88.027942 224.64 
L 88.027942 190.618776 
L 86.528628 190.618776 
z
" style="fill:#1f77b4;"/>
   </g>
   <g id="patch_20">
    <path clip-path="url(#p73d2637f46)" d="M 88.027942 224.64 
L 89.527256 224.64 
L 89.527256 199.493878 
L 88.027942 199.493878 
z
" style="fill:#1f77b4;"/>
   </g>
   <g id="patch_21">
    <path clip-path="url(#p73d2637f46)" d="M 89.527256 224.64 
L 91.02657 224.64 
L 91.02657 195.056327 
L 89.527256 195.056327 
z
" style="fill:#1f77b4;"/>
   </g>
   <g id="patch_22">
    <path clip-path="url(#p73d2637f46)" d="M 91.02657 224.64 
L 92.525884 224.64 
L 92.525884 186.181224 
L 91.02657 186.181224 
z
" style="fill:#1f77b4;"/>
   </g>
   <g id="patch_23">
    <path clip-path="url(#p73d2637f46)" d="M 92.525884 224.64 
L 94.025198 224.64 
L 94.025198 189.139592 
L 92.525884 189.139592 
z
" style="fill:#1f77b4;"/>
   </g>
   <g id="patch_24">
    <path clip-path="url(#p73d2637f46)" d="M 94.025198 224.64 
L 95.524512 224.64 
L 95.524512 186.181224 
L 94.025198 186.181224 
z
" style="fill:#1f77b4;"/>
   </g>
   <g id="patch_25">
    <path clip-path="url(#p73d2637f46)" d="M 95.524512 224.64 
L 97.023826 224.64 
L 97.023826 192.097959 
L 95.524512 192.097959 
z
" style="fill:#1f77b4;"/>
   </g>
   <g id="patch_26">
    <path clip-path="url(#p73d2637f46)" d="M 97.023826 224.64 
L 98.52314 224.64 
L 98.52314 181.743673 
L 97.023826 181.743673 
z
" style="fill:#1f77b4;"/>
   </g>
   <g id="patch_27">
    <path clip-path="url(#p73d2637f46)" d="M 98.52314 224.64 
L 100.022454 224.64 
L 100.022454 172.868571 
L 98.52314 172.868571 
z
" style="fill:#1f77b4;"/>
   </g>
   <g id="patch_28">
    <path clip-path="url(#p73d2637f46)" d="M 100.022454 224.64 
L 101.521768 224.64 
L 101.521768 183.222857 
L 100.022454 183.222857 
z
" style="fill:#1f77b4;"/>
   </g>
   <g id="patch_29">
    <path clip-path="url(#p73d2637f46)" d="M 101.521768 224.64 
L 103.021082 224.64 
L 103.021082 184.702041 
L 101.521768 184.702041 
z
" style="fill:#1f77b4;"/>
   </g>
   <g id="patch_30">
    <path clip-path="url(#p73d2637f46)" d="M 103.021082 224.64 
L 104.520396 224.64 
L 104.520396 175.826939 
L 103.021082 175.826939 
z
" style="fill:#1f77b4;"/>
   </g>
   <g id="patch_31">
    <path clip-path="url(#p73d2637f46)" d="M 104.520396 224.64 
L 106.01971 224.64 
L 106.01971 177.306122 
L 104.520396 177.306122 
z
" style="fill:#1f77b4;"/>
   </g>
   <g id="patch_32">
    <path clip-path="url(#p73d2637f46)" d="M 106.01971 224.64 
L 107.519024 224.64 
L 107.519024 187.660408 
L 106.01971 187.660408 
z
" style="fill:#1f77b4;"/>
   </g>
   <g id="patch_33">
    <path clip-path="url(#p73d2637f46)" d="M 107.519024 224.64 
L 109.018338 224.64 
L 109.018338 181.743673 
L 107.519024 181.743673 
z
" style="fill:#1f77b4;"/>
   </g>
   <g id="patch_34">
    <path clip-path="url(#p73d2637f46)" d="M 109.018338 224.64 
L 110.517652 224.64 
L 110.517652 190.618776 
L 109.018338 190.618776 
z
" style="fill:#1f77b4;"/>
   </g>
   <g id="patch_35">
    <path clip-path="url(#p73d2637f46)" d="M 110.517652 224.64 
L 112.016966 224.64 
L 112.016966 175.826939 
L 110.517652 175.826939 
z
" style="fill:#1f77b4;"/>
   </g>
   <g id="patch_36">
    <path clip-path="url(#p73d2637f46)" d="M 112.016966 224.64 
L 113.51628 224.64 
L 113.51628 186.181224 
L 112.016966 186.181224 
z
" style="fill:#1f77b4;"/>
   </g>
   <g id="patch_37">
    <path clip-path="url(#p73d2637f46)" d="M 113.51628 224.64 
L 115.015594 224.64 
L 115.015594 174.347755 
L 113.51628 174.347755 
z
" style="fill:#1f77b4;"/>
   </g>
   <g id="patch_38">
    <path clip-path="url(#p73d2637f46)" d="M 115.015594 224.64 
L 116.514908 224.64 
L 116.514908 165.472653 
L 115.015594 165.472653 
z
" style="fill:#1f77b4;"/>
   </g>
   <g id="patch_39">
    <path clip-path="url(#p73d2637f46)" d="M 116.514908 224.64 
L 118.014222 224.64 
L 118.014222 177.306122 
L 116.514908 177.306122 
z
" style="fill:#1f77b4;"/>
   </g>
   <g id="patch_40">
    <path clip-path="url(#p73d2637f46)" d="M 118.014222 224.64 
L 119.513536 224.64 
L 119.513536 178.785306 
L 118.014222 178.785306 
z
" style="fill:#1f77b4;"/>
   </g>
   <g id="patch_41">
    <path clip-path="url(#p73d2637f46)" d="M 119.513536 224.64 
L 121.01285 224.64 
L 121.01285 178.785306 
L 119.513536 178.785306 
z
" style="fill:#1f77b4;"/>
   </g>
   <g id="patch_42">
    <path clip-path="url(#p73d2637f46)" d="M 121.01285 224.64 
L 122.512163 224.64 
L 122.512163 183.222857 
L 121.01285 183.222857 
z
" style="fill:#1f77b4;"/>
   </g>
   <g id="patch_43">
    <path clip-path="url(#p73d2637f46)" d="M 122.512163 224.64 
L 124.011477 224.64 
L 124.011477 187.660408 
L 122.512163 187.660408 
z
" style="fill:#1f77b4;"/>
   </g>
   <g id="patch_44">
    <path clip-path="url(#p73d2637f46)" d="M 124.011477 224.64 
L 125.510791 224.64 
L 125.510791 172.868571 
L 124.011477 172.868571 
z
" style="fill:#1f77b4;"/>
   </g>
   <g id="patch_45">
    <path clip-path="url(#p73d2637f46)" d="M 125.510791 224.64 
L 127.010105 224.64 
L 127.010105 175.826939 
L 125.510791 175.826939 
z
" style="fill:#1f77b4;"/>
   </g>
   <g id="patch_46">
    <path clip-path="url(#p73d2637f46)" d="M 127.010105 224.64 
L 128.509419 224.64 
L 128.509419 189.139592 
L 127.010105 189.139592 
z
" style="fill:#1f77b4;"/>
   </g>
   <g id="patch_47">
    <path clip-path="url(#p73d2637f46)" d="M 128.509419 224.64 
L 130.008733 224.64 
L 130.008733 180.26449 
L 128.509419 180.26449 
z
" style="fill:#1f77b4;"/>
   </g>
   <g id="patch_48">
    <path clip-path="url(#p73d2637f46)" d="M 130.008733 224.64 
L 131.508047 224.64 
L 131.508047 174.347755 
L 130.008733 174.347755 
z
" style="fill:#1f77b4;"/>
   </g>
   <g id="patch_49">
    <path clip-path="url(#p73d2637f46)" d="M 131.508047 224.64 
L 133.007361 224.64 
L 133.007361 171.389388 
L 131.508047 171.389388 
z
" style="fill:#1f77b4;"/>
   </g>
   <g id="patch_50">
    <path clip-path="url(#p73d2637f46)" d="M 133.007361 224.64 
L 134.506675 224.64 
L 134.506675 177.306122 
L 133.007361 177.306122 
z
" style="fill:#1f77b4;"/>
   </g>
   <g id="patch_51">
    <path clip-path="url(#p73d2637f46)" d="M 134.506675 224.64 
L 136.005989 224.64 
L 136.005989 169.910204 
L 134.506675 169.910204 
z
" style="fill:#1f77b4;"/>
   </g>
   <g id="patch_52">
    <path clip-path="url(#p73d2637f46)" d="M 136.005989 224.64 
L 137.505303 224.64 
L 137.505303 178.785306 
L 136.005989 178.785306 
z
" style="fill:#1f77b4;"/>
   </g>
   <g id="patch_53">
    <path clip-path="url(#p73d2637f46)" d="M 137.505303 224.64 
L 139.004617 224.64 
L 139.004617 159.555918 
L 137.505303 159.555918 
z
" style="fill:#1f77b4;"/>
   </g>
   <g id="patch_54">
    <path clip-path="url(#p73d2637f46)" d="M 139.004617 224.64 
L 140.503931 224.64 
L 140.503931 166.951837 
L 139.004617 166.951837 
z
" style="fill:#1f77b4;"/>
   </g>
   <g id="patch_55">
    <path clip-path="url(#p73d2637f46)" d="M 140.503931 224.64 
L 142.003245 224.64 
L 142.003245 181.743673 
L 140.503931 181.743673 
z
" style="fill:#1f77b4;"/>
   </g>
   <g id="patch_56">
    <path clip-path="url(#p73d2637f46)" d="M 142.003245 224.64 
L 143.502559 224.64 
L 143.502559 166.951837 
L 142.003245 166.951837 
z
" style="fill:#1f77b4;"/>
   </g>
   <g id="patch_57">
    <path clip-path="url(#p73d2637f46)" d="M 143.502559 224.64 
L 145.001873 224.64 
L 145.001873 174.347755 
L 143.502559 174.347755 
z
" style="fill:#1f77b4;"/>
   </g>
   <g id="patch_58">
    <path clip-path="url(#p73d2637f46)" d="M 145.001873 224.64 
L 146.501187 224.64 
L 146.501187 169.910204 
L 145.001873 169.910204 
z
" style="fill:#1f77b4;"/>
   </g>
   <g id="patch_59">
    <path clip-path="url(#p73d2637f46)" d="M 146.501187 224.64 
L 148.000501 224.64 
L 148.000501 171.389388 
L 146.501187 171.389388 
z
" style="fill:#1f77b4;"/>
   </g>
   <g id="patch_60">
    <path clip-path="url(#p73d2637f46)" d="M 148.000501 224.64 
L 149.499815 224.64 
L 149.499815 150.680816 
L 148.000501 150.680816 
z
" style="fill:#1f77b4;"/>
   </g>
   <g id="patch_61">
    <path clip-path="url(#p73d2637f46)" d="M 149.499815 224.64 
L 150.999129 224.64 
L 150.999129 172.868571 
L 149.499815 172.868571 
z
" style="fill:#1f77b4;"/>
   </g>
   <g id="patch_62">
    <path clip-path="url(#p73d2637f46)" d="M 150.999129 224.64 
L 152.498443 224.64 
L 152.498443 178.785306 
L 150.999129 178.785306 
z
" style="fill:#1f77b4;"/>
   </g>
   <g id="patch_63">
    <path clip-path="url(#p73d2637f46)" d="M 152.498443 224.64 
L 153.997757 224.64 
L 153.997757 165.472653 
L 152.498443 165.472653 
z
" style="fill:#1f77b4;"/>
   </g>
   <g id="patch_64">
    <path clip-path="url(#p73d2637f46)" d="M 153.997757 224.64 
L 155.497071 224.64 
L 155.497071 166.951837 
L 153.997757 166.951837 
z
" style="fill:#1f77b4;"/>
   </g>
   <g id="patch_65">
    <path clip-path="url(#p73d2637f46)" d="M 155.497071 224.64 
L 156.996385 224.64 
L 156.996385 175.826939 
L 155.497071 175.826939 
z
" style="fill:#1f77b4;"/>
   </g>
   <g id="patch_66">
    <path clip-path="url(#p73d2637f46)" d="M 156.996385 224.64 
L 158.495699 224.64 
L 158.495699 171.389388 
L 156.996385 171.389388 
z
" style="fill:#1f77b4;"/>
   </g>
   <g id="patch_67">
    <path clip-path="url(#p73d2637f46)" d="M 158.495699 224.64 
L 159.995013 224.64 
L 159.995013 161.035102 
L 158.495699 161.035102 
z
" style="fill:#1f77b4;"/>
   </g>
   <g id="patch_68">
    <path clip-path="url(#p73d2637f46)" d="M 159.995013 224.64 
L 161.494327 224.64 
L 161.494327 171.389388 
L 159.995013 171.389388 
z
" style="fill:#1f77b4;"/>
   </g>
   <g id="patch_69">
    <path clip-path="url(#p73d2637f46)" d="M 161.494327 224.64 
L 162.993641 224.64 
L 162.993641 169.910204 
L 161.494327 169.910204 
z
" style="fill:#1f77b4;"/>
   </g>
   <g id="patch_70">
    <path clip-path="url(#p73d2637f46)" d="M 162.993641 224.64 
L 164.492955 224.64 
L 164.492955 156.597551 
L 162.993641 156.597551 
z
" style="fill:#1f77b4;"/>
   </g>
   <g id="patch_71">
    <path clip-path="url(#p73d2637f46)" d="M 164.492955 224.64 
L 165.992269 224.64 
L 165.992269 169.910204 
L 164.492955 169.910204 
z
" style="fill:#1f77b4;"/>
   </g>
   <g id="patch_72">
    <path clip-path="url(#p73d2637f46)" d="M 165.992269 224.64 
L 167.491583 224.64 
L 167.491583 180.26449 
L 165.992269 180.26449 
z
" style="fill:#1f77b4;"/>
   </g>
   <g id="patch_73">
    <path clip-path="url(#p73d2637f46)" d="M 167.491583 224.64 
L 168.990897 224.64 
L 168.990897 172.868571 
L 167.491583 172.868571 
z
" style="fill:#1f77b4;"/>
   </g>
   <g id="patch_74">
    <path clip-path="url(#p73d2637f46)" d="M 168.990897 224.64 
L 170.490211 224.64 
L 170.490211 171.389388 
L 168.990897 171.389388 
z
" style="fill:#1f77b4;"/>
   </g>
   <g id="patch_75">
    <path clip-path="url(#p73d2637f46)" d="M 170.490211 224.64 
L 171.989525 224.64 
L 171.989525 158.076735 
L 170.490211 158.076735 
z
" style="fill:#1f77b4;"/>
   </g>
   <g id="patch_76">
    <path clip-path="url(#p73d2637f46)" d="M 171.989525 224.64 
L 173.488839 224.64 
L 173.488839 169.910204 
L 171.989525 169.910204 
z
" style="fill:#1f77b4;"/>
   </g>
   <g id="patch_77">
    <path clip-path="url(#p73d2637f46)" d="M 173.488839 224.64 
L 174.988153 224.64 
L 174.988153 178.785306 
L 173.488839 178.785306 
z
" style="fill:#1f77b4;"/>
   </g>
   <g id="patch_78">
    <path clip-path="url(#p73d2637f46)" d="M 174.988153 224.64 
L 176.487467 224.64 
L 176.487467 163.993469 
L 174.988153 163.993469 
z
" style="fill:#1f77b4;"/>
   </g>
   <g id="patch_79">
    <path clip-path="url(#p73d2637f46)" d="M 176.487467 224.64 
L 177.986781 224.64 
L 177.986781 158.076735 
L 176.487467 158.076735 
z
" style="fill:#1f77b4;"/>
   </g>
   <g id="patch_80">
    <path clip-path="url(#p73d2637f46)" d="M 177.986781 224.64 
L 179.486095 224.64 
L 179.486095 181.743673 
L 177.986781 181.743673 
z
" style="fill:#1f77b4;"/>
   </g>
   <g id="patch_81">
    <path clip-path="url(#p73d2637f46)" d="M 179.486095 224.64 
L 180.985409 224.64 
L 180.985409 158.076735 
L 179.486095 158.076735 
z
" style="fill:#1f77b4;"/>
   </g>
   <g id="patch_82">
    <path clip-path="url(#p73d2637f46)" d="M 180.985409 224.64 
L 182.484723 224.64 
L 182.484723 162.514286 
L 180.985409 162.514286 
z
" style="fill:#1f77b4;"/>
   </g>
   <g id="patch_83">
    <path clip-path="url(#p73d2637f46)" d="M 182.484723 224.64 
L 183.984037 224.64 
L 183.984037 175.826939 
L 182.484723 175.826939 
z
" style="fill:#1f77b4;"/>
   </g>
   <g id="patch_84">
    <path clip-path="url(#p73d2637f46)" d="M 183.984037 224.64 
L 185.483351 224.64 
L 185.483351 163.993469 
L 183.984037 163.993469 
z
" style="fill:#1f77b4;"/>
   </g>
   <g id="patch_85">
    <path clip-path="url(#p73d2637f46)" d="M 185.483351 224.64 
L 186.982665 224.64 
L 186.982665 184.702041 
L 185.483351 184.702041 
z
" style="fill:#1f77b4;"/>
   </g>
   <g id="patch_86">
    <path clip-path="url(#p73d2637f46)" d="M 186.982665 224.64 
L 188.481979 224.64 
L 188.481979 165.472653 
L 186.982665 165.472653 
z
" style="fill:#1f77b4;"/>
   </g>
   <g id="patch_87">
    <path clip-path="url(#p73d2637f46)" d="M 188.481979 224.64 
L 189.981293 224.64 
L 189.981293 166.951837 
L 188.481979 166.951837 
z
" style="fill:#1f77b4;"/>
   </g>
   <g id="patch_88">
    <path clip-path="url(#p73d2637f46)" d="M 189.981293 224.64 
L 191.480607 224.64 
L 191.480607 178.785306 
L 189.981293 178.785306 
z
" style="fill:#1f77b4;"/>
   </g>
   <g id="patch_89">
    <path clip-path="url(#p73d2637f46)" d="M 191.480607 224.64 
L 192.979921 224.64 
L 192.979921 175.826939 
L 191.480607 175.826939 
z
" style="fill:#1f77b4;"/>
   </g>
   <g id="patch_90">
    <path clip-path="url(#p73d2637f46)" d="M 192.979921 224.64 
L 194.479235 224.64 
L 194.479235 161.035102 
L 192.979921 161.035102 
z
" style="fill:#1f77b4;"/>
   </g>
   <g id="patch_91">
    <path clip-path="url(#p73d2637f46)" d="M 194.479235 224.64 
L 195.978549 224.64 
L 195.978549 171.389388 
L 194.479235 171.389388 
z
" style="fill:#1f77b4;"/>
   </g>
   <g id="patch_92">
    <path clip-path="url(#p73d2637f46)" d="M 195.978549 224.64 
L 197.477863 224.64 
L 197.477863 163.993469 
L 195.978549 163.993469 
z
" style="fill:#1f77b4;"/>
   </g>
   <g id="patch_93">
    <path clip-path="url(#p73d2637f46)" d="M 197.477863 224.64 
L 198.977176 224.64 
L 198.977176 174.347755 
L 197.477863 174.347755 
z
" style="fill:#1f77b4;"/>
   </g>
   <g id="patch_94">
    <path clip-path="url(#p73d2637f46)" d="M 198.977176 224.64 
L 200.47649 224.64 
L 200.47649 163.993469 
L 198.977176 163.993469 
z
" style="fill:#1f77b4;"/>
   </g>
   <g id="patch_95">
    <path clip-path="url(#p73d2637f46)" d="M 200.47649 224.64 
L 201.975804 224.64 
L 201.975804 165.472653 
L 200.47649 165.472653 
z
" style="fill:#1f77b4;"/>
   </g>
   <g id="patch_96">
    <path clip-path="url(#p73d2637f46)" d="M 201.975804 224.64 
L 203.475118 224.64 
L 203.475118 156.597551 
L 201.975804 156.597551 
z
" style="fill:#1f77b4;"/>
   </g>
   <g id="patch_97">
    <path clip-path="url(#p73d2637f46)" d="M 203.475118 224.64 
L 204.974432 224.64 
L 204.974432 168.43102 
L 203.475118 168.43102 
z
" style="fill:#1f77b4;"/>
   </g>
   <g id="patch_98">
    <path clip-path="url(#p73d2637f46)" d="M 204.974432 224.64 
L 206.473746 224.64 
L 206.473746 162.514286 
L 204.974432 162.514286 
z
" style="fill:#1f77b4;"/>
   </g>
   <g id="patch_99">
    <path clip-path="url(#p73d2637f46)" d="M 206.473746 224.64 
L 207.97306 224.64 
L 207.97306 158.076735 
L 206.473746 158.076735 
z
" style="fill:#1f77b4;"/>
   </g>
   <g id="patch_100">
    <path clip-path="url(#p73d2637f46)" d="M 207.97306 224.64 
L 209.472374 224.64 
L 209.472374 180.26449 
L 207.97306 180.26449 
z
" style="fill:#1f77b4;"/>
   </g>
   <g id="patch_101">
    <path clip-path="url(#p73d2637f46)" d="M 209.472374 224.64 
L 210.971688 224.64 
L 210.971688 171.389388 
L 209.472374 171.389388 
z
" style="fill:#1f77b4;"/>
   </g>
   <g id="patch_102">
    <path clip-path="url(#p73d2637f46)" d="M 210.971688 224.64 
L 212.471002 224.64 
L 212.471002 165.472653 
L 210.971688 165.472653 
z
" style="fill:#1f77b4;"/>
   </g>
   <g id="patch_103">
    <path clip-path="url(#p73d2637f46)" d="M 212.471002 224.64 
L 213.970316 224.64 
L 213.970316 168.43102 
L 212.471002 168.43102 
z
" style="fill:#1f77b4;"/>
   </g>
   <g id="patch_104">
    <path clip-path="url(#p73d2637f46)" d="M 213.970316 224.64 
L 215.46963 224.64 
L 215.46963 147.722449 
L 213.970316 147.722449 
z
" style="fill:#1f77b4;"/>
   </g>
   <g id="patch_105">
    <path clip-path="url(#p73d2637f46)" d="M 215.46963 224.64 
L 216.968944 224.64 
L 216.968944 138.847347 
L 215.46963 138.847347 
z
" style="fill:#1f77b4;"/>
   </g>
   <g id="patch_106">
    <path clip-path="url(#p73d2637f46)" d="M 216.968944 224.64 
L 218.468258 224.64 
L 218.468258 169.910204 
L 216.968944 169.910204 
z
" style="fill:#1f77b4;"/>
   </g>
   <g id="patch_107">
    <path clip-path="url(#p73d2637f46)" d="M 218.468258 224.64 
L 219.967572 224.64 
L 219.967572 158.076735 
L 218.468258 158.076735 
z
" style="fill:#1f77b4;"/>
   </g>
   <g id="patch_108">
    <path clip-path="url(#p73d2637f46)" d="M 219.967572 224.64 
L 221.466886 224.64 
L 221.466886 162.514286 
L 219.967572 162.514286 
z
" style="fill:#1f77b4;"/>
   </g>
   <g id="patch_109">
    <path clip-path="url(#p73d2637f46)" d="M 221.466886 224.64 
L 222.9662 224.64 
L 222.9662 147.722449 
L 221.466886 147.722449 
z
" style="fill:#1f77b4;"/>
   </g>
   <g id="patch_110">
    <path clip-path="url(#p73d2637f46)" d="M 222.9662 224.64 
L 224.465514 224.64 
L 224.465514 168.43102 
L 222.9662 168.43102 
z
" style="fill:#1f77b4;"/>
   </g>
   <g id="patch_111">
    <path clip-path="url(#p73d2637f46)" d="M 224.465514 224.64 
L 225.964828 224.64 
L 225.964828 155.118367 
L 224.465514 155.118367 
z
" style="fill:#1f77b4;"/>
   </g>
   <g id="patch_112">
    <path clip-path="url(#p73d2637f46)" d="M 225.964828 224.64 
L 227.464142 224.64 
L 227.464142 166.951837 
L 225.964828 166.951837 
z
" style="fill:#1f77b4;"/>
   </g>
   <g id="patch_113">
    <path clip-path="url(#p73d2637f46)" d="M 227.464142 224.64 
L 228.963456 224.64 
L 228.963456 174.347755 
L 227.464142 174.347755 
z
" style="fill:#1f77b4;"/>
   </g>
   <g id="patch_114">
    <path clip-path="url(#p73d2637f46)" d="M 228.963456 224.64 
L 230.46277 224.64 
L 230.46277 174.347755 
L 228.963456 174.347755 
z
" style="fill:#1f77b4;"/>
   </g>
   <g id="patch_115">
    <path clip-path="url(#p73d2637f46)" d="M 230.46277 224.64 
L 231.962084 224.64 
L 231.962084 162.514286 
L 230.46277 162.514286 
z
" style="fill:#1f77b4;"/>
   </g>
   <g id="patch_116">
    <path clip-path="url(#p73d2637f46)" d="M 231.962084 224.64 
L 233.461398 224.64 
L 233.461398 165.472653 
L 231.962084 165.472653 
z
" style="fill:#1f77b4;"/>
   </g>
   <g id="patch_117">
    <path clip-path="url(#p73d2637f46)" d="M 233.461398 224.64 
L 234.960712 224.64 
L 234.960712 153.639184 
L 233.461398 153.639184 
z
" style="fill:#1f77b4;"/>
   </g>
   <g id="patch_118">
    <path clip-path="url(#p73d2637f46)" d="M 234.960712 224.64 
L 236.460026 224.64 
L 236.460026 158.076735 
L 234.960712 158.076735 
z
" style="fill:#1f77b4;"/>
   </g>
   <g id="patch_119">
    <path clip-path="url(#p73d2637f46)" d="M 236.460026 224.64 
L 237.95934 224.64 
L 237.95934 163.993469 
L 236.460026 163.993469 
z
" style="fill:#1f77b4;"/>
   </g>
   <g id="patch_120">
    <path clip-path="url(#p73d2637f46)" d="M 237.95934 224.64 
L 239.458654 224.64 
L 239.458654 159.555918 
L 237.95934 159.555918 
z
" style="fill:#1f77b4;"/>
   </g>
   <g id="patch_121">
    <path clip-path="url(#p73d2637f46)" d="M 239.458654 224.64 
L 240.957968 224.64 
L 240.957968 162.514286 
L 239.458654 162.514286 
z
" style="fill:#1f77b4;"/>
   </g>
   <g id="patch_122">
    <path clip-path="url(#p73d2637f46)" d="M 240.957968 224.64 
L 242.457282 224.64 
L 242.457282 146.243265 
L 240.957968 146.243265 
z
" style="fill:#1f77b4;"/>
   </g>
   <g id="patch_123">
    <path clip-path="url(#p73d2637f46)" d="M 242.457282 224.64 
L 243.956596 224.64 
L 243.956596 168.43102 
L 242.457282 168.43102 
z
" style="fill:#1f77b4;"/>
   </g>
   <g id="patch_124">
    <path clip-path="url(#p73d2637f46)" d="M 243.956596 224.64 
L 245.45591 224.64 
L 245.45591 168.43102 
L 243.956596 168.43102 
z
" style="fill:#1f77b4;"/>
   </g>
   <g id="patch_125">
    <path clip-path="url(#p73d2637f46)" d="M 245.45591 224.64 
L 246.955224 224.64 
L 246.955224 171.389388 
L 245.45591 171.389388 
z
" style="fill:#1f77b4;"/>
   </g>
   <g id="patch_126">
    <path clip-path="url(#p73d2637f46)" d="M 246.955224 224.64 
L 248.454538 224.64 
L 248.454538 166.951837 
L 246.955224 166.951837 
z
" style="fill:#1f77b4;"/>
   </g>
   <g id="patch_127">
    <path clip-path="url(#p73d2637f46)" d="M 248.454538 224.64 
L 249.953852 224.64 
L 249.953852 156.597551 
L 248.454538 156.597551 
z
" style="fill:#1f77b4;"/>
   </g>
   <g id="patch_128">
    <path clip-path="url(#p73d2637f46)" d="M 249.953852 224.64 
L 251.453166 224.64 
L 251.453166 174.347755 
L 249.953852 174.347755 
z
" style="fill:#1f77b4;"/>
   </g>
   <g id="patch_129">
    <path clip-path="url(#p73d2637f46)" d="M 251.453166 224.64 
L 252.95248 224.64 
L 252.95248 180.26449 
L 251.453166 180.26449 
z
" style="fill:#1f77b4;"/>
   </g>
   <g id="patch_130">
    <path clip-path="url(#p73d2637f46)" d="M 252.95248 224.64 
L 254.451794 224.64 
L 254.451794 146.243265 
L 252.95248 146.243265 
z
" style="fill:#1f77b4;"/>
   </g>
   <g id="patch_131">
    <path clip-path="url(#p73d2637f46)" d="M 254.451794 224.64 
L 255.951108 224.64 
L 255.951108 152.16 
L 254.451794 152.16 
z
" style="fill:#1f77b4;"/>
   </g>
   <g id="patch_132">
    <path clip-path="url(#p73d2637f46)" d="M 255.951108 224.64 
L 257.450422 224.64 
L 257.450422 152.16 
L 255.951108 152.16 
z
" style="fill:#1f77b4;"/>
   </g>
   <g id="patch_133">
    <path clip-path="url(#p73d2637f46)" d="M 257.450422 224.64 
L 258.949736 224.64 
L 258.949736 149.201633 
L 257.450422 149.201633 
z
" style="fill:#1f77b4;"/>
   </g>
   <g id="patch_134">
    <path clip-path="url(#p73d2637f46)" d="M 258.949736 224.64 
L 260.44905 224.64 
L 260.44905 143.284898 
L 258.949736 143.284898 
z
" style="fill:#1f77b4;"/>
   </g>
   <g id="patch_135">
    <path clip-path="url(#p73d2637f46)" d="M 260.44905 224.64 
L 261.948364 224.64 
L 261.948364 153.639184 
L 260.44905 153.639184 
z
" style="fill:#1f77b4;"/>
   </g>
   <g id="patch_136">
    <path clip-path="url(#p73d2637f46)" d="M 261.948364 224.64 
L 263.447678 224.64 
L 263.447678 168.43102 
L 261.948364 168.43102 
z
" style="fill:#1f77b4;"/>
   </g>
   <g id="patch_137">
    <path clip-path="url(#p73d2637f46)" d="M 263.447678 224.64 
L 264.946992 224.64 
L 264.946992 147.722449 
L 263.447678 147.722449 
z
" style="fill:#1f77b4;"/>
   </g>
   <g id="patch_138">
    <path clip-path="url(#p73d2637f46)" d="M 264.946992 224.64 
L 266.446306 224.64 
L 266.446306 162.514286 
L 264.946992 162.514286 
z
" style="fill:#1f77b4;"/>
   </g>
   <g id="patch_139">
    <path clip-path="url(#p73d2637f46)" d="M 266.446306 224.64 
L 267.94562 224.64 
L 267.94562 178.785306 
L 266.446306 178.785306 
z
" style="fill:#1f77b4;"/>
   </g>
   <g id="patch_140">
    <path clip-path="url(#p73d2637f46)" d="M 267.94562 224.64 
L 269.444934 224.64 
L 269.444934 162.514286 
L 267.94562 162.514286 
z
" style="fill:#1f77b4;"/>
   </g>
   <g id="patch_141">
    <path clip-path="url(#p73d2637f46)" d="M 269.444934 224.64 
L 270.944248 224.64 
L 270.944248 141.805714 
L 269.444934 141.805714 
z
" style="fill:#1f77b4;"/>
   </g>
   <g id="patch_142">
    <path clip-path="url(#p73d2637f46)" d="M 270.944248 224.64 
L 272.443562 224.64 
L 272.443562 156.597551 
L 270.944248 156.597551 
z
" style="fill:#1f77b4;"/>
   </g>
   <g id="patch_143">
    <path clip-path="url(#p73d2637f46)" d="M 272.443562 224.64 
L 273.942876 224.64 
L 273.942876 152.16 
L 272.443562 152.16 
z
" style="fill:#1f77b4;"/>
   </g>
   <g id="patch_144">
    <path clip-path="url(#p73d2637f46)" d="M 273.942876 224.64 
L 275.442189 224.64 
L 275.442189 147.722449 
L 273.942876 147.722449 
z
" style="fill:#1f77b4;"/>
   </g>
   <g id="patch_145">
    <path clip-path="url(#p73d2637f46)" d="M 275.442189 224.64 
L 276.941503 224.64 
L 276.941503 149.201633 
L 275.442189 149.201633 
z
" style="fill:#1f77b4;"/>
   </g>
   <g id="patch_146">
    <path clip-path="url(#p73d2637f46)" d="M 276.941503 224.64 
L 278.440817 224.64 
L 278.440817 143.284898 
L 276.941503 143.284898 
z
" style="fill:#1f77b4;"/>
   </g>
   <g id="patch_147">
    <path clip-path="url(#p73d2637f46)" d="M 278.440817 224.64 
L 279.940131 224.64 
L 279.940131 141.805714 
L 278.440817 141.805714 
z
" style="fill:#1f77b4;"/>
   </g>
   <g id="patch_148">
    <path clip-path="url(#p73d2637f46)" d="M 279.940131 224.64 
L 281.439445 224.64 
L 281.439445 138.847347 
L 279.940131 138.847347 
z
" style="fill:#1f77b4;"/>
   </g>
   <g id="patch_149">
    <path clip-path="url(#p73d2637f46)" d="M 281.439445 224.64 
L 282.938759 224.64 
L 282.938759 146.243265 
L 281.439445 146.243265 
z
" style="fill:#1f77b4;"/>
   </g>
   <g id="patch_150">
    <path clip-path="url(#p73d2637f46)" d="M 282.938759 224.64 
L 284.438073 224.64 
L 284.438073 141.805714 
L 282.938759 141.805714 
z
" style="fill:#1f77b4;"/>
   </g>
   <g id="patch_151">
    <path clip-path="url(#p73d2637f46)" d="M 284.438073 224.64 
L 285.937387 224.64 
L 285.937387 141.805714 
L 284.438073 141.805714 
z
" style="fill:#1f77b4;"/>
   </g>
   <g id="patch_152">
    <path clip-path="url(#p73d2637f46)" d="M 285.937387 224.64 
L 287.436701 224.64 
L 287.436701 147.722449 
L 285.937387 147.722449 
z
" style="fill:#1f77b4;"/>
   </g>
   <g id="patch_153">
    <path clip-path="url(#p73d2637f46)" d="M 287.436701 224.64 
L 288.936015 224.64 
L 288.936015 109.263673 
L 287.436701 109.263673 
z
" style="fill:#1f77b4;"/>
   </g>
   <g id="patch_154">
    <path clip-path="url(#p73d2637f46)" d="M 288.936015 224.64 
L 290.435329 224.64 
L 290.435329 131.451429 
L 288.936015 131.451429 
z
" style="fill:#1f77b4;"/>
   </g>
   <g id="patch_155">
    <path clip-path="url(#p73d2637f46)" d="M 290.435329 224.64 
L 291.934643 224.64 
L 291.934643 134.409796 
L 290.435329 134.409796 
z
" style="fill:#1f77b4;"/>
   </g>
   <g id="patch_156">
    <path clip-path="url(#p73d2637f46)" d="M 291.934643 224.64 
L 293.433957 224.64 
L 293.433957 121.097143 
L 291.934643 121.097143 
z
" style="fill:#1f77b4;"/>
   </g>
   <g id="patch_157">
    <path clip-path="url(#p73d2637f46)" d="M 293.433957 224.64 
L 294.933271 224.64 
L 294.933271 129.972245 
L 293.433957 129.972245 
z
" style="fill:#1f77b4;"/>
   </g>
   <g id="patch_158">
    <path clip-path="url(#p73d2637f46)" d="M 294.933271 224.64 
L 296.432585 224.64 
L 296.432585 144.764082 
L 294.933271 144.764082 
z
" style="fill:#1f77b4;"/>
   </g>
   <g id="patch_159">
    <path clip-path="url(#p73d2637f46)" d="M 296.432585 224.64 
L 297.931899 224.64 
L 297.931899 116.659592 
L 296.432585 116.659592 
z
" style="fill:#1f77b4;"/>
   </g>
   <g id="patch_160">
    <path clip-path="url(#p73d2637f46)" d="M 297.931899 224.64 
L 299.431213 224.64 
L 299.431213 118.138776 
L 297.931899 118.138776 
z
" style="fill:#1f77b4;"/>
   </g>
   <g id="patch_161">
    <path clip-path="url(#p73d2637f46)" d="M 299.431213 224.64 
L 300.930527 224.64 
L 300.930527 135.88898 
L 299.431213 135.88898 
z
" style="fill:#1f77b4;"/>
   </g>
   <g id="patch_162">
    <path clip-path="url(#p73d2637f46)" d="M 300.930527 224.64 
L 302.429841 224.64 
L 302.429841 138.847347 
L 300.930527 138.847347 
z
" style="fill:#1f77b4;"/>
   </g>
   <g id="patch_163">
    <path clip-path="url(#p73d2637f46)" d="M 302.429841 224.64 
L 303.929155 224.64 
L 303.929155 150.680816 
L 302.429841 150.680816 
z
" style="fill:#1f77b4;"/>
   </g>
   <g id="patch_164">
    <path clip-path="url(#p73d2637f46)" d="M 303.929155 224.64 
L 305.428469 224.64 
L 305.428469 104.826122 
L 303.929155 104.826122 
z
" style="fill:#1f77b4;"/>
   </g>
   <g id="patch_165">
    <path clip-path="url(#p73d2637f46)" d="M 305.428469 224.64 
L 306.927783 224.64 
L 306.927783 94.471837 
L 305.428469 94.471837 
z
" style="fill:#1f77b4;"/>
   </g>
   <g id="patch_166">
    <path clip-path="url(#p73d2637f46)" d="M 306.927783 224.64 
L 308.427097 224.64 
L 308.427097 101.867755 
L 306.927783 101.867755 
z
" style="fill:#1f77b4;"/>
   </g>
   <g id="patch_167">
    <path clip-path="url(#p73d2637f46)" d="M 308.427097 224.64 
L 309.926411 224.64 
L 309.926411 119.617959 
L 308.427097 119.617959 
z
" style="fill:#1f77b4;"/>
   </g>
   <g id="patch_168">
    <path clip-path="url(#p73d2637f46)" d="M 309.926411 224.64 
L 311.425725 224.64 
L 311.425725 115.180408 
L 309.926411 115.180408 
z
" style="fill:#1f77b4;"/>
   </g>
   <g id="patch_169">
    <path clip-path="url(#p73d2637f46)" d="M 311.425725 224.64 
L 312.925039 224.64 
L 312.925039 92.992653 
L 311.425725 92.992653 
z
" style="fill:#1f77b4;"/>
   </g>
   <g id="patch_170">
    <path clip-path="url(#p73d2637f46)" d="M 312.925039 224.64 
L 314.424353 224.64 
L 314.424353 113.701224 
L 312.925039 113.701224 
z
" style="fill:#1f77b4;"/>
   </g>
   <g id="patch_171">
    <path clip-path="url(#p73d2637f46)" d="M 314.424353 224.64 
L 315.923667 224.64 
L 315.923667 112.222041 
L 314.424353 112.222041 
z
" style="fill:#1f77b4;"/>
   </g>
   <g id="patch_172">
    <path clip-path="url(#p73d2637f46)" d="M 315.923667 224.64 
L 317.422981 224.64 
L 317.422981 88.555102 
L 315.923667 88.555102 
z
" style="fill:#1f77b4;"/>
   </g>
   <g id="patch_173">
    <path clip-path="url(#p73d2637f46)" d="M 317.422981 224.64 
L 318.922295 224.64 
L 318.922295 100.388571 
L 317.422981 100.388571 
z
" style="fill:#1f77b4;"/>
   </g>
   <g id="patch_174">
    <path clip-path="url(#p73d2637f46)" d="M 318.922295 224.64 
L 320.421609 224.64 
L 320.421609 100.388571 
L 318.922295 100.388571 
z
" style="fill:#1f77b4;"/>
   </g>
   <g id="patch_175">
    <path clip-path="url(#p73d2637f46)" d="M 320.421609 224.64 
L 321.920923 224.64 
L 321.920923 66.367347 
L 320.421609 66.367347 
z
" style="fill:#1f77b4;"/>
   </g>
   <g id="patch_176">
    <path clip-path="url(#p73d2637f46)" d="M 321.920923 224.64 
L 323.420237 224.64 
L 323.420237 91.513469 
L 321.920923 91.513469 
z
" style="fill:#1f77b4;"/>
   </g>
   <g id="patch_177">
    <path clip-path="url(#p73d2637f46)" d="M 323.420237 224.64 
L 324.919551 224.64 
L 324.919551 88.555102 
L 323.420237 88.555102 
z
" style="fill:#1f77b4;"/>
   </g>
   <g id="patch_178">
    <path clip-path="url(#p73d2637f46)" d="M 324.919551 224.64 
L 326.418865 224.64 
L 326.418865 81.159184 
L 324.919551 81.159184 
z
" style="fill:#1f77b4;"/>
   </g>
   <g id="patch_179">
    <path clip-path="url(#p73d2637f46)" d="M 326.418865 224.64 
L 327.918179 224.64 
L 327.918179 85.596735 
L 326.418865 85.596735 
z
" style="fill:#1f77b4;"/>
   </g>
   <g id="patch_180">
    <path clip-path="url(#p73d2637f46)" d="M 327.918179 224.64 
L 329.417493 224.64 
L 329.417493 101.867755 
L 327.918179 101.867755 
z
" style="fill:#1f77b4;"/>
   </g>
   <g id="patch_181">
    <path clip-path="url(#p73d2637f46)" d="M 329.417493 224.64 
L 330.916807 224.64 
L 330.916807 88.555102 
L 329.417493 88.555102 
z
" style="fill:#1f77b4;"/>
   </g>
   <g id="patch_182">
    <path clip-path="url(#p73d2637f46)" d="M 330.916807 224.64 
L 332.416121 224.64 
L 332.416121 70.804898 
L 330.916807 70.804898 
z
" style="fill:#1f77b4;"/>
   </g>
   <g id="patch_183">
    <path clip-path="url(#p73d2637f46)" d="M 332.416121 224.64 
L 333.915435 224.64 
L 333.915435 87.075918 
L 332.416121 87.075918 
z
" style="fill:#1f77b4;"/>
   </g>
   <g id="patch_184">
    <path clip-path="url(#p73d2637f46)" d="M 333.915435 224.64 
L 335.414749 224.64 
L 335.414749 67.846531 
L 333.915435 67.846531 
z
" style="fill:#1f77b4;"/>
   </g>
   <g id="patch_185">
    <path clip-path="url(#p73d2637f46)" d="M 335.414749 224.64 
L 336.914063 224.64 
L 336.914063 73.763265 
L 335.414749 73.763265 
z
" style="fill:#1f77b4;"/>
   </g>
   <g id="patch_186">
    <path clip-path="url(#p73d2637f46)" d="M 336.914063 224.64 
L 338.413377 224.64 
L 338.413377 67.846531 
L 336.914063 67.846531 
z
" style="fill:#1f77b4;"/>
   </g>
   <g id="patch_187">
    <path clip-path="url(#p73d2637f46)" d="M 338.413377 224.64 
L 339.912691 224.64 
L 339.912691 54.533878 
L 338.413377 54.533878 
z
" style="fill:#1f77b4;"/>
   </g>
   <g id="patch_188">
    <path clip-path="url(#p73d2637f46)" d="M 339.912691 224.64 
L 341.412005 224.64 
L 341.412005 66.367347 
L 339.912691 66.367347 
z
" style="fill:#1f77b4;"/>
   </g>
   <g id="patch_189">
    <path clip-path="url(#p73d2637f46)" d="M 341.412005 224.64 
L 342.911319 224.64 
L 342.911319 73.763265 
L 341.412005 73.763265 
z
" style="fill:#1f77b4;"/>
   </g>
   <g id="patch_190">
    <path clip-path="url(#p73d2637f46)" d="M 342.911319 224.64 
L 344.410633 224.64 
L 344.410633 85.596735 
L 342.911319 85.596735 
z
" style="fill:#1f77b4;"/>
   </g>
   <g id="patch_191">
    <path clip-path="url(#p73d2637f46)" d="M 344.410633 224.64 
L 345.909947 224.64 
L 345.909947 61.929796 
L 344.410633 61.929796 
z
" style="fill:#1f77b4;"/>
   </g>
   <g id="patch_192">
    <path clip-path="url(#p73d2637f46)" d="M 345.909947 224.64 
L 347.409261 224.64 
L 347.409261 33.825306 
L 345.909947 33.825306 
z
" style="fill:#1f77b4;"/>
   </g>
   <g id="patch_193">
    <path clip-path="url(#p73d2637f46)" d="M 347.409261 224.64 
L 348.908575 224.64 
L 348.908575 67.846531 
L 347.409261 67.846531 
z
" style="fill:#1f77b4;"/>
   </g>
   <g id="patch_194">
    <path clip-path="url(#p73d2637f46)" d="M 348.908575 224.64 
L 350.407889 224.64 
L 350.407889 44.179592 
L 348.908575 44.179592 
z
" style="fill:#1f77b4;"/>
   </g>
   <g id="patch_195">
    <path clip-path="url(#p73d2637f46)" d="M 350.407889 224.64 
L 351.907202 224.64 
L 351.907202 48.617143 
L 350.407889 48.617143 
z
" style="fill:#1f77b4;"/>
   </g>
   <g id="patch_196">
    <path clip-path="url(#p73d2637f46)" d="M 351.907202 224.64 
L 353.406516 224.64 
L 353.406516 58.971429 
L 351.907202 58.971429 
z
" style="fill:#1f77b4;"/>
   </g>
   <g id="patch_197">
    <path clip-path="url(#p73d2637f46)" d="M 353.406516 224.64 
L 354.90583 224.64 
L 354.90583 38.262857 
L 353.406516 38.262857 
z
" style="fill:#1f77b4;"/>
   </g>
   <g id="patch_198">
    <path clip-path="url(#p73d2637f46)" d="M 354.90583 224.64 
L 356.405144 224.64 
L 356.405144 47.137959 
L 354.90583 47.137959 
z
" style="fill:#1f77b4;"/>
   </g>
   <g id="patch_199">
    <path clip-path="url(#p73d2637f46)" d="M 356.405144 224.64 
L 357.904458 224.64 
L 357.904458 36.783673 
L 356.405144 36.783673 
z
" style="fill:#1f77b4;"/>
   </g>
   <g id="patch_200">
    <path clip-path="url(#p73d2637f46)" d="M 357.904458 224.64 
L 359.403772 224.64 
L 359.403772 50.096327 
L 357.904458 50.096327 
z
" style="fill:#1f77b4;"/>
   </g>
   <g id="patch_201">
    <path clip-path="url(#p73d2637f46)" d="M 359.403772 224.64 
L 360.903086 224.64 
L 360.903086 17.554286 
L 359.403772 17.554286 
z
" style="fill:#1f77b4;"/>
   </g>
   <g id="patch_202">
    <path clip-path="url(#p73d2637f46)" d="M 360.903086 224.64 
L 362.4024 224.64 
L 362.4024 38.262857 
L 360.903086 38.262857 
z
" style="fill:#1f77b4;"/>
   </g>
   <g id="matplotlib.axis_1">
    <g id="xtick_1">
     <g id="line2d_1">
      <defs>
       <path d="M 0 0 
L 0 3.5 
" id="m70c4d0b425" style="stroke:#000000;stroke-width:0.8;"/>
      </defs>
      <g>
       <use style="stroke:#000000;stroke-width:0.8;" x="58.046307" xlink:href="#m70c4d0b425" y="224.64"/>
      </g>
     </g>
     <g id="text_1">
      <!-- −100 -->
      <defs>
       <path d="M 10.59375 35.5 
L 73.1875 35.5 
L 73.1875 27.203125 
L 10.59375 27.203125 
z
" id="DejaVuSans-8722"/>
       <path d="M 12.40625 8.296875 
L 28.515625 8.296875 
L 28.515625 63.921875 
L 10.984375 60.40625 
L 10.984375 69.390625 
L 28.421875 72.90625 
L 38.28125 72.90625 
L 38.28125 8.296875 
L 54.390625 8.296875 
L 54.390625 0 
L 12.40625 0 
z
" id="DejaVuSans-49"/>
       <path d="M 31.78125 66.40625 
Q 24.171875 66.40625 20.328125 58.90625 
Q 16.5 51.421875 16.5 36.375 
Q 16.5 21.390625 20.328125 13.890625 
Q 24.171875 6.390625 31.78125 6.390625 
Q 39.453125 6.390625 43.28125 13.890625 
Q 47.125 21.390625 47.125 36.375 
Q 47.125 51.421875 43.28125 58.90625 
Q 39.453125 66.40625 31.78125 66.40625 
z
M 31.78125 74.21875 
Q 44.046875 74.21875 50.515625 64.515625 
Q 56.984375 54.828125 56.984375 36.375 
Q 56.984375 17.96875 50.515625 8.265625 
Q 44.046875 -1.421875 31.78125 -1.421875 
Q 19.53125 -1.421875 13.0625 8.265625 
Q 6.59375 17.96875 6.59375 36.375 
Q 6.59375 54.828125 13.0625 64.515625 
Q 19.53125 74.21875 31.78125 74.21875 
z
" id="DejaVuSans-48"/>
      </defs>
      <g transform="translate(44.312713 239.238437)scale(0.1 -0.1)">
       <use xlink:href="#DejaVuSans-8722"/>
       <use x="83.789062" xlink:href="#DejaVuSans-49"/>
       <use x="147.412109" xlink:href="#DejaVuSans-48"/>
       <use x="211.035156" xlink:href="#DejaVuSans-48"/>
      </g>
     </g>
    </g>
    <g id="xtick_2">
     <g id="line2d_2">
      <g>
       <use style="stroke:#000000;stroke-width:0.8;" x="96.110794" xlink:href="#m70c4d0b425" y="224.64"/>
      </g>
     </g>
     <g id="text_2">
      <!-- −75 -->
      <defs>
       <path d="M 8.203125 72.90625 
L 55.078125 72.90625 
L 55.078125 68.703125 
L 28.609375 0 
L 18.3125 0 
L 43.21875 64.59375 
L 8.203125 64.59375 
z
" id="DejaVuSans-55"/>
       <path d="M 10.796875 72.90625 
L 49.515625 72.90625 
L 49.515625 64.59375 
L 19.828125 64.59375 
L 19.828125 46.734375 
Q 21.96875 47.46875 24.109375 47.828125 
Q 26.265625 48.1875 28.421875 48.1875 
Q 40.625 48.1875 47.75 41.5 
Q 54.890625 34.8125 54.890625 23.390625 
Q 54.890625 11.625 47.5625 5.09375 
Q 40.234375 -1.421875 26.90625 -1.421875 
Q 22.3125 -1.421875 17.546875 -0.640625 
Q 12.796875 0.140625 7.71875 1.703125 
L 7.71875 11.625 
Q 12.109375 9.234375 16.796875 8.0625 
Q 21.484375 6.890625 26.703125 6.890625 
Q 35.15625 6.890625 40.078125 11.328125 
Q 45.015625 15.765625 45.015625 23.390625 
Q 45.015625 31 40.078125 35.4375 
Q 35.15625 39.890625 26.703125 39.890625 
Q 22.75 39.890625 18.8125 39.015625 
Q 14.890625 38.140625 10.796875 36.28125 
z
" id="DejaVuSans-53"/>
      </defs>
      <g transform="translate(85.55845 239.238437)scale(0.1 -0.1)">
       <use xlink:href="#DejaVuSans-8722"/>
       <use x="83.789062" xlink:href="#DejaVuSans-55"/>
       <use x="147.412109" xlink:href="#DejaVuSans-53"/>
      </g>
     </g>
    </g>
    <g id="xtick_3">
     <g id="line2d_3">
      <g>
       <use style="stroke:#000000;stroke-width:0.8;" x="134.17528" xlink:href="#m70c4d0b425" y="224.64"/>
      </g>
     </g>
     <g id="text_3">
      <!-- −50 -->
      <g transform="translate(123.622937 239.238437)scale(0.1 -0.1)">
       <use xlink:href="#DejaVuSans-8722"/>
       <use x="83.789062" xlink:href="#DejaVuSans-53"/>
       <use x="147.412109" xlink:href="#DejaVuSans-48"/>
      </g>
     </g>
    </g>
    <g id="xtick_4">
     <g id="line2d_4">
      <g>
       <use style="stroke:#000000;stroke-width:0.8;" x="172.239767" xlink:href="#m70c4d0b425" y="224.64"/>
      </g>
     </g>
     <g id="text_4">
      <!-- −25 -->
      <defs>
       <path d="M 19.1875 8.296875 
L 53.609375 8.296875 
L 53.609375 0 
L 7.328125 0 
L 7.328125 8.296875 
Q 12.9375 14.109375 22.625 23.890625 
Q 32.328125 33.6875 34.8125 36.53125 
Q 39.546875 41.84375 41.421875 45.53125 
Q 43.3125 49.21875 43.3125 52.78125 
Q 43.3125 58.59375 39.234375 62.25 
Q 35.15625 65.921875 28.609375 65.921875 
Q 23.96875 65.921875 18.8125 64.3125 
Q 13.671875 62.703125 7.8125 59.421875 
L 7.8125 69.390625 
Q 13.765625 71.78125 18.9375 73 
Q 24.125 74.21875 28.421875 74.21875 
Q 39.75 74.21875 46.484375 68.546875 
Q 53.21875 62.890625 53.21875 53.421875 
Q 53.21875 48.921875 51.53125 44.890625 
Q 49.859375 40.875 45.40625 35.40625 
Q 44.1875 33.984375 37.640625 27.21875 
Q 31.109375 20.453125 19.1875 8.296875 
z
" id="DejaVuSans-50"/>
      </defs>
      <g transform="translate(161.687423 239.238437)scale(0.1 -0.1)">
       <use xlink:href="#DejaVuSans-8722"/>
       <use x="83.789062" xlink:href="#DejaVuSans-50"/>
       <use x="147.412109" xlink:href="#DejaVuSans-53"/>
      </g>
     </g>
    </g>
    <g id="xtick_5">
     <g id="line2d_5">
      <g>
       <use style="stroke:#000000;stroke-width:0.8;" x="210.304254" xlink:href="#m70c4d0b425" y="224.64"/>
      </g>
     </g>
     <g id="text_5">
      <!-- 0 -->
      <g transform="translate(207.123004 239.238437)scale(0.1 -0.1)">
       <use xlink:href="#DejaVuSans-48"/>
      </g>
     </g>
    </g>
    <g id="xtick_6">
     <g id="line2d_6">
      <g>
       <use style="stroke:#000000;stroke-width:0.8;" x="248.368741" xlink:href="#m70c4d0b425" y="224.64"/>
      </g>
     </g>
     <g id="text_6">
      <!-- 25 -->
      <g transform="translate(242.006241 239.238437)scale(0.1 -0.1)">
       <use xlink:href="#DejaVuSans-50"/>
       <use x="63.623047" xlink:href="#DejaVuSans-53"/>
      </g>
     </g>
    </g>
    <g id="xtick_7">
     <g id="line2d_7">
      <g>
       <use style="stroke:#000000;stroke-width:0.8;" x="286.433228" xlink:href="#m70c4d0b425" y="224.64"/>
      </g>
     </g>
     <g id="text_7">
      <!-- 50 -->
      <g transform="translate(280.070728 239.238437)scale(0.1 -0.1)">
       <use xlink:href="#DejaVuSans-53"/>
       <use x="63.623047" xlink:href="#DejaVuSans-48"/>
      </g>
     </g>
    </g>
    <g id="xtick_8">
     <g id="line2d_8">
      <g>
       <use style="stroke:#000000;stroke-width:0.8;" x="324.497714" xlink:href="#m70c4d0b425" y="224.64"/>
      </g>
     </g>
     <g id="text_8">
      <!-- 75 -->
      <g transform="translate(318.135214 239.238437)scale(0.1 -0.1)">
       <use xlink:href="#DejaVuSans-55"/>
       <use x="63.623047" xlink:href="#DejaVuSans-53"/>
      </g>
     </g>
    </g>
    <g id="xtick_9">
     <g id="line2d_9">
      <g>
       <use style="stroke:#000000;stroke-width:0.8;" x="362.562201" xlink:href="#m70c4d0b425" y="224.64"/>
      </g>
     </g>
     <g id="text_9">
      <!-- 100 -->
      <g transform="translate(353.018451 239.238437)scale(0.1 -0.1)">
       <use xlink:href="#DejaVuSans-49"/>
       <use x="63.623047" xlink:href="#DejaVuSans-48"/>
       <use x="127.246094" xlink:href="#DejaVuSans-48"/>
      </g>
     </g>
    </g>
   </g>
   <g id="matplotlib.axis_2">
    <g id="ytick_1">
     <g id="line2d_10">
      <defs>
       <path d="M 0 0 
L -3.5 0 
" id="ma3d530ee5f" style="stroke:#000000;stroke-width:0.8;"/>
      </defs>
      <g>
       <use style="stroke:#000000;stroke-width:0.8;" x="42.828125" xlink:href="#ma3d530ee5f" y="224.64"/>
      </g>
     </g>
     <g id="text_10">
      <!-- 0.000 -->
      <defs>
       <path d="M 10.6875 12.40625 
L 21 12.40625 
L 21 0 
L 10.6875 0 
z
" id="DejaVuSans-46"/>
      </defs>
      <g transform="translate(7.2 228.439219)scale(0.1 -0.1)">
       <use xlink:href="#DejaVuSans-48"/>
       <use x="63.623047" xlink:href="#DejaVuSans-46"/>
       <use x="95.410156" xlink:href="#DejaVuSans-48"/>
       <use x="159.033203" xlink:href="#DejaVuSans-48"/>
       <use x="222.65625" xlink:href="#DejaVuSans-48"/>
      </g>
     </g>
    </g>
    <g id="ytick_2">
     <g id="line2d_11">
      <g>
       <use style="stroke:#000000;stroke-width:0.8;" x="42.828125" xlink:href="#ma3d530ee5f" y="195.508374"/>
      </g>
     </g>
     <g id="text_11">
      <!-- 0.002 -->
      <g transform="translate(7.2 199.307593)scale(0.1 -0.1)">
       <use xlink:href="#DejaVuSans-48"/>
       <use x="63.623047" xlink:href="#DejaVuSans-46"/>
       <use x="95.410156" xlink:href="#DejaVuSans-48"/>
       <use x="159.033203" xlink:href="#DejaVuSans-48"/>
       <use x="222.65625" xlink:href="#DejaVuSans-50"/>
      </g>
     </g>
    </g>
    <g id="ytick_3">
     <g id="line2d_12">
      <g>
       <use style="stroke:#000000;stroke-width:0.8;" x="42.828125" xlink:href="#ma3d530ee5f" y="166.376749"/>
      </g>
     </g>
     <g id="text_12">
      <!-- 0.004 -->
      <defs>
       <path d="M 37.796875 64.3125 
L 12.890625 25.390625 
L 37.796875 25.390625 
z
M 35.203125 72.90625 
L 47.609375 72.90625 
L 47.609375 25.390625 
L 58.015625 25.390625 
L 58.015625 17.1875 
L 47.609375 17.1875 
L 47.609375 0 
L 37.796875 0 
L 37.796875 17.1875 
L 4.890625 17.1875 
L 4.890625 26.703125 
z
" id="DejaVuSans-52"/>
      </defs>
      <g transform="translate(7.2 170.175967)scale(0.1 -0.1)">
       <use xlink:href="#DejaVuSans-48"/>
       <use x="63.623047" xlink:href="#DejaVuSans-46"/>
       <use x="95.410156" xlink:href="#DejaVuSans-48"/>
       <use x="159.033203" xlink:href="#DejaVuSans-48"/>
       <use x="222.65625" xlink:href="#DejaVuSans-52"/>
      </g>
     </g>
    </g>
    <g id="ytick_4">
     <g id="line2d_13">
      <g>
       <use style="stroke:#000000;stroke-width:0.8;" x="42.828125" xlink:href="#ma3d530ee5f" y="137.245123"/>
      </g>
     </g>
     <g id="text_13">
      <!-- 0.006 -->
      <defs>
       <path d="M 33.015625 40.375 
Q 26.375 40.375 22.484375 35.828125 
Q 18.609375 31.296875 18.609375 23.390625 
Q 18.609375 15.53125 22.484375 10.953125 
Q 26.375 6.390625 33.015625 6.390625 
Q 39.65625 6.390625 43.53125 10.953125 
Q 47.40625 15.53125 47.40625 23.390625 
Q 47.40625 31.296875 43.53125 35.828125 
Q 39.65625 40.375 33.015625 40.375 
z
M 52.59375 71.296875 
L 52.59375 62.3125 
Q 48.875 64.0625 45.09375 64.984375 
Q 41.3125 65.921875 37.59375 65.921875 
Q 27.828125 65.921875 22.671875 59.328125 
Q 17.53125 52.734375 16.796875 39.40625 
Q 19.671875 43.65625 24.015625 45.921875 
Q 28.375 48.1875 33.59375 48.1875 
Q 44.578125 48.1875 50.953125 41.515625 
Q 57.328125 34.859375 57.328125 23.390625 
Q 57.328125 12.15625 50.6875 5.359375 
Q 44.046875 -1.421875 33.015625 -1.421875 
Q 20.359375 -1.421875 13.671875 8.265625 
Q 6.984375 17.96875 6.984375 36.375 
Q 6.984375 53.65625 15.1875 63.9375 
Q 23.390625 74.21875 37.203125 74.21875 
Q 40.921875 74.21875 44.703125 73.484375 
Q 48.484375 72.75 52.59375 71.296875 
z
" id="DejaVuSans-54"/>
      </defs>
      <g transform="translate(7.2 141.044342)scale(0.1 -0.1)">
       <use xlink:href="#DejaVuSans-48"/>
       <use x="63.623047" xlink:href="#DejaVuSans-46"/>
       <use x="95.410156" xlink:href="#DejaVuSans-48"/>
       <use x="159.033203" xlink:href="#DejaVuSans-48"/>
       <use x="222.65625" xlink:href="#DejaVuSans-54"/>
      </g>
     </g>
    </g>
    <g id="ytick_5">
     <g id="line2d_14">
      <g>
       <use style="stroke:#000000;stroke-width:0.8;" x="42.828125" xlink:href="#ma3d530ee5f" y="108.113497"/>
      </g>
     </g>
     <g id="text_14">
      <!-- 0.008 -->
      <defs>
       <path d="M 31.78125 34.625 
Q 24.75 34.625 20.71875 30.859375 
Q 16.703125 27.09375 16.703125 20.515625 
Q 16.703125 13.921875 20.71875 10.15625 
Q 24.75 6.390625 31.78125 6.390625 
Q 38.8125 6.390625 42.859375 10.171875 
Q 46.921875 13.96875 46.921875 20.515625 
Q 46.921875 27.09375 42.890625 30.859375 
Q 38.875 34.625 31.78125 34.625 
z
M 21.921875 38.8125 
Q 15.578125 40.375 12.03125 44.71875 
Q 8.5 49.078125 8.5 55.328125 
Q 8.5 64.0625 14.71875 69.140625 
Q 20.953125 74.21875 31.78125 74.21875 
Q 42.671875 74.21875 48.875 69.140625 
Q 55.078125 64.0625 55.078125 55.328125 
Q 55.078125 49.078125 51.53125 44.71875 
Q 48 40.375 41.703125 38.8125 
Q 48.828125 37.15625 52.796875 32.3125 
Q 56.78125 27.484375 56.78125 20.515625 
Q 56.78125 9.90625 50.3125 4.234375 
Q 43.84375 -1.421875 31.78125 -1.421875 
Q 19.734375 -1.421875 13.25 4.234375 
Q 6.78125 9.90625 6.78125 20.515625 
Q 6.78125 27.484375 10.78125 32.3125 
Q 14.796875 37.15625 21.921875 38.8125 
z
M 18.3125 54.390625 
Q 18.3125 48.734375 21.84375 45.5625 
Q 25.390625 42.390625 31.78125 42.390625 
Q 38.140625 42.390625 41.71875 45.5625 
Q 45.3125 48.734375 45.3125 54.390625 
Q 45.3125 60.0625 41.71875 63.234375 
Q 38.140625 66.40625 31.78125 66.40625 
Q 25.390625 66.40625 21.84375 63.234375 
Q 18.3125 60.0625 18.3125 54.390625 
z
" id="DejaVuSans-56"/>
      </defs>
      <g transform="translate(7.2 111.912716)scale(0.1 -0.1)">
       <use xlink:href="#DejaVuSans-48"/>
       <use x="63.623047" xlink:href="#DejaVuSans-46"/>
       <use x="95.410156" xlink:href="#DejaVuSans-48"/>
       <use x="159.033203" xlink:href="#DejaVuSans-48"/>
       <use x="222.65625" xlink:href="#DejaVuSans-56"/>
      </g>
     </g>
    </g>
    <g id="ytick_6">
     <g id="line2d_15">
      <g>
       <use style="stroke:#000000;stroke-width:0.8;" x="42.828125" xlink:href="#ma3d530ee5f" y="78.981872"/>
      </g>
     </g>
     <g id="text_15">
      <!-- 0.010 -->
      <g transform="translate(7.2 82.78109)scale(0.1 -0.1)">
       <use xlink:href="#DejaVuSans-48"/>
       <use x="63.623047" xlink:href="#DejaVuSans-46"/>
       <use x="95.410156" xlink:href="#DejaVuSans-48"/>
       <use x="159.033203" xlink:href="#DejaVuSans-49"/>
       <use x="222.65625" xlink:href="#DejaVuSans-48"/>
      </g>
     </g>
    </g>
    <g id="ytick_7">
     <g id="line2d_16">
      <g>
       <use style="stroke:#000000;stroke-width:0.8;" x="42.828125" xlink:href="#ma3d530ee5f" y="49.850246"/>
      </g>
     </g>
     <g id="text_16">
      <!-- 0.012 -->
      <g transform="translate(7.2 53.649465)scale(0.1 -0.1)">
       <use xlink:href="#DejaVuSans-48"/>
       <use x="63.623047" xlink:href="#DejaVuSans-46"/>
       <use x="95.410156" xlink:href="#DejaVuSans-48"/>
       <use x="159.033203" xlink:href="#DejaVuSans-49"/>
       <use x="222.65625" xlink:href="#DejaVuSans-50"/>
      </g>
     </g>
    </g>
    <g id="ytick_8">
     <g id="line2d_17">
      <g>
       <use style="stroke:#000000;stroke-width:0.8;" x="42.828125" xlink:href="#ma3d530ee5f" y="20.71862"/>
      </g>
     </g>
     <g id="text_17">
      <!-- 0.014 -->
      <g transform="translate(7.2 24.517839)scale(0.1 -0.1)">
       <use xlink:href="#DejaVuSans-48"/>
       <use x="63.623047" xlink:href="#DejaVuSans-46"/>
       <use x="95.410156" xlink:href="#DejaVuSans-48"/>
       <use x="159.033203" xlink:href="#DejaVuSans-49"/>
       <use x="222.65625" xlink:href="#DejaVuSans-52"/>
      </g>
     </g>
    </g>
   </g>
   <g id="line2d_18">
    <path clip-path="url(#p73d2637f46)" d="M 58.046307 224.64 
L 62.309529 219.43697 
L 66.572752 214.57225 
L 70.835974 210.034077 
L 75.099197 205.810688 
L 79.362419 201.890322 
L 83.625642 198.261216 
L 88.041122 194.797 
L 92.456603 191.619533 
L 96.872083 188.715749 
L 101.287564 186.072578 
L 105.855302 183.598601 
L 110.423041 181.375069 
L 115.143037 179.325157 
L 120.015291 177.45649 
L 125.039804 175.774237 
L 130.216574 174.280857 
L 135.545602 172.975829 
L 141.179146 171.827235 
L 147.117206 170.844194 
L 153.51204 170.010964 
L 160.668163 169.307905 
L 168.890092 168.729543 
L 179.852665 168.199823 
L 202.995873 167.142337 
L 211.37006 166.496361 
L 218.526183 165.724719 
L 224.921017 164.815847 
L 230.859077 163.750437 
L 236.492621 162.512899 
L 241.821649 161.114058 
L 246.846161 159.570905 
L 251.718416 157.848082 
L 256.438412 155.949748 
L 261.158408 153.809568 
L 265.726147 151.493124 
L 270.141627 149.010791 
L 274.557108 146.276257 
L 278.972588 143.276452 
L 283.235811 140.116125 
L 287.499033 136.684561 
L 291.762256 132.97 
L 296.025478 128.960678 
L 300.288701 124.644833 
L 304.551923 120.010703 
L 308.815146 115.046524 
L 313.078368 109.740536 
L 317.341591 104.080974 
L 321.604813 98.056078 
L 325.868036 91.654084 
L 330.283516 84.61336 
L 334.698997 77.142436 
L 339.114477 69.228244 
L 343.529958 60.857716 
L 347.945438 52.017783 
L 352.513177 42.365152 
L 357.080915 32.181733 
L 361.648653 21.453059 
L 362.409943 19.61092 
L 362.409943 19.61092 
" style="fill:none;stroke:#ff0000;stroke-linecap:square;stroke-width:2;"/>
   </g>
   <g id="patch_203">
    <path d="M 42.828125 224.64 
L 42.828125 7.2 
" style="fill:none;stroke:#000000;stroke-linecap:square;stroke-linejoin:miter;stroke-width:0.8;"/>
   </g>
   <g id="patch_204">
    <path d="M 377.628125 224.64 
L 377.628125 7.2 
" style="fill:none;stroke:#000000;stroke-linecap:square;stroke-linejoin:miter;stroke-width:0.8;"/>
   </g>
   <g id="patch_205">
    <path d="M 42.828125 224.64 
L 377.628125 224.64 
" style="fill:none;stroke:#000000;stroke-linecap:square;stroke-linejoin:miter;stroke-width:0.8;"/>
   </g>
   <g id="patch_206">
    <path d="M 42.828125 7.2 
L 377.628125 7.2 
" style="fill:none;stroke:#000000;stroke-linecap:square;stroke-linejoin:miter;stroke-width:0.8;"/>
   </g>
   <g id="legend_1">
    <g id="patch_207">
     <path d="M 49.828125 44.55625 
L 195.34375 44.55625 
Q 197.34375 44.55625 197.34375 42.55625 
L 197.34375 14.2 
Q 197.34375 12.2 195.34375 12.2 
L 49.828125 12.2 
Q 47.828125 12.2 47.828125 14.2 
L 47.828125 42.55625 
Q 47.828125 44.55625 49.828125 44.55625 
z
" style="fill:#ffffff;opacity:0.8;stroke:#cccccc;stroke-linejoin:miter;"/>
    </g>
    <g id="line2d_19">
     <path d="M 51.828125 20.298437 
L 71.828125 20.298437 
" style="fill:none;stroke:#ff0000;stroke-linecap:square;stroke-width:2;"/>
    </g>
    <g id="line2d_20"/>
    <g id="text_18">
     <!-- probability distribution -->
     <defs>
      <path d="M 18.109375 8.203125 
L 18.109375 -20.796875 
L 9.078125 -20.796875 
L 9.078125 54.6875 
L 18.109375 54.6875 
L 18.109375 46.390625 
Q 20.953125 51.265625 25.265625 53.625 
Q 29.59375 56 35.59375 56 
Q 45.5625 56 51.78125 48.09375 
Q 58.015625 40.1875 58.015625 27.296875 
Q 58.015625 14.40625 51.78125 6.484375 
Q 45.5625 -1.421875 35.59375 -1.421875 
Q 29.59375 -1.421875 25.265625 0.953125 
Q 20.953125 3.328125 18.109375 8.203125 
z
M 48.6875 27.296875 
Q 48.6875 37.203125 44.609375 42.84375 
Q 40.53125 48.484375 33.40625 48.484375 
Q 26.265625 48.484375 22.1875 42.84375 
Q 18.109375 37.203125 18.109375 27.296875 
Q 18.109375 17.390625 22.1875 11.75 
Q 26.265625 6.109375 33.40625 6.109375 
Q 40.53125 6.109375 44.609375 11.75 
Q 48.6875 17.390625 48.6875 27.296875 
z
" id="DejaVuSans-112"/>
      <path d="M 41.109375 46.296875 
Q 39.59375 47.171875 37.8125 47.578125 
Q 36.03125 48 33.890625 48 
Q 26.265625 48 22.1875 43.046875 
Q 18.109375 38.09375 18.109375 28.8125 
L 18.109375 0 
L 9.078125 0 
L 9.078125 54.6875 
L 18.109375 54.6875 
L 18.109375 46.1875 
Q 20.953125 51.171875 25.484375 53.578125 
Q 30.03125 56 36.53125 56 
Q 37.453125 56 38.578125 55.875 
Q 39.703125 55.765625 41.0625 55.515625 
z
" id="DejaVuSans-114"/>
      <path d="M 30.609375 48.390625 
Q 23.390625 48.390625 19.1875 42.75 
Q 14.984375 37.109375 14.984375 27.296875 
Q 14.984375 17.484375 19.15625 11.84375 
Q 23.34375 6.203125 30.609375 6.203125 
Q 37.796875 6.203125 41.984375 11.859375 
Q 46.1875 17.53125 46.1875 27.296875 
Q 46.1875 37.015625 41.984375 42.703125 
Q 37.796875 48.390625 30.609375 48.390625 
z
M 30.609375 56 
Q 42.328125 56 49.015625 48.375 
Q 55.71875 40.765625 55.71875 27.296875 
Q 55.71875 13.875 49.015625 6.21875 
Q 42.328125 -1.421875 30.609375 -1.421875 
Q 18.84375 -1.421875 12.171875 6.21875 
Q 5.515625 13.875 5.515625 27.296875 
Q 5.515625 40.765625 12.171875 48.375 
Q 18.84375 56 30.609375 56 
z
" id="DejaVuSans-111"/>
      <path d="M 48.6875 27.296875 
Q 48.6875 37.203125 44.609375 42.84375 
Q 40.53125 48.484375 33.40625 48.484375 
Q 26.265625 48.484375 22.1875 42.84375 
Q 18.109375 37.203125 18.109375 27.296875 
Q 18.109375 17.390625 22.1875 11.75 
Q 26.265625 6.109375 33.40625 6.109375 
Q 40.53125 6.109375 44.609375 11.75 
Q 48.6875 17.390625 48.6875 27.296875 
z
M 18.109375 46.390625 
Q 20.953125 51.265625 25.265625 53.625 
Q 29.59375 56 35.59375 56 
Q 45.5625 56 51.78125 48.09375 
Q 58.015625 40.1875 58.015625 27.296875 
Q 58.015625 14.40625 51.78125 6.484375 
Q 45.5625 -1.421875 35.59375 -1.421875 
Q 29.59375 -1.421875 25.265625 0.953125 
Q 20.953125 3.328125 18.109375 8.203125 
L 18.109375 0 
L 9.078125 0 
L 9.078125 75.984375 
L 18.109375 75.984375 
z
" id="DejaVuSans-98"/>
      <path d="M 34.28125 27.484375 
Q 23.390625 27.484375 19.1875 25 
Q 14.984375 22.515625 14.984375 16.5 
Q 14.984375 11.71875 18.140625 8.90625 
Q 21.296875 6.109375 26.703125 6.109375 
Q 34.1875 6.109375 38.703125 11.40625 
Q 43.21875 16.703125 43.21875 25.484375 
L 43.21875 27.484375 
z
M 52.203125 31.203125 
L 52.203125 0 
L 43.21875 0 
L 43.21875 8.296875 
Q 40.140625 3.328125 35.546875 0.953125 
Q 30.953125 -1.421875 24.3125 -1.421875 
Q 15.921875 -1.421875 10.953125 3.296875 
Q 6 8.015625 6 15.921875 
Q 6 25.140625 12.171875 29.828125 
Q 18.359375 34.515625 30.609375 34.515625 
L 43.21875 34.515625 
L 43.21875 35.40625 
Q 43.21875 41.609375 39.140625 45 
Q 35.0625 48.390625 27.6875 48.390625 
Q 23 48.390625 18.546875 47.265625 
Q 14.109375 46.140625 10.015625 43.890625 
L 10.015625 52.203125 
Q 14.9375 54.109375 19.578125 55.046875 
Q 24.21875 56 28.609375 56 
Q 40.484375 56 46.34375 49.84375 
Q 52.203125 43.703125 52.203125 31.203125 
z
" id="DejaVuSans-97"/>
      <path d="M 9.421875 54.6875 
L 18.40625 54.6875 
L 18.40625 0 
L 9.421875 0 
z
M 9.421875 75.984375 
L 18.40625 75.984375 
L 18.40625 64.59375 
L 9.421875 64.59375 
z
" id="DejaVuSans-105"/>
      <path d="M 9.421875 75.984375 
L 18.40625 75.984375 
L 18.40625 0 
L 9.421875 0 
z
" id="DejaVuSans-108"/>
      <path d="M 18.3125 70.21875 
L 18.3125 54.6875 
L 36.8125 54.6875 
L 36.8125 47.703125 
L 18.3125 47.703125 
L 18.3125 18.015625 
Q 18.3125 11.328125 20.140625 9.421875 
Q 21.96875 7.515625 27.59375 7.515625 
L 36.8125 7.515625 
L 36.8125 0 
L 27.59375 0 
Q 17.1875 0 13.234375 3.875 
Q 9.28125 7.765625 9.28125 18.015625 
L 9.28125 47.703125 
L 2.6875 47.703125 
L 2.6875 54.6875 
L 9.28125 54.6875 
L 9.28125 70.21875 
z
" id="DejaVuSans-116"/>
      <path d="M 32.171875 -5.078125 
Q 28.375 -14.84375 24.75 -17.8125 
Q 21.140625 -20.796875 15.09375 -20.796875 
L 7.90625 -20.796875 
L 7.90625 -13.28125 
L 13.1875 -13.28125 
Q 16.890625 -13.28125 18.9375 -11.515625 
Q 21 -9.765625 23.484375 -3.21875 
L 25.09375 0.875 
L 2.984375 54.6875 
L 12.5 54.6875 
L 29.59375 11.921875 
L 46.6875 54.6875 
L 56.203125 54.6875 
z
" id="DejaVuSans-121"/>
      <path id="DejaVuSans-32"/>
      <path d="M 45.40625 46.390625 
L 45.40625 75.984375 
L 54.390625 75.984375 
L 54.390625 0 
L 45.40625 0 
L 45.40625 8.203125 
Q 42.578125 3.328125 38.25 0.953125 
Q 33.9375 -1.421875 27.875 -1.421875 
Q 17.96875 -1.421875 11.734375 6.484375 
Q 5.515625 14.40625 5.515625 27.296875 
Q 5.515625 40.1875 11.734375 48.09375 
Q 17.96875 56 27.875 56 
Q 33.9375 56 38.25 53.625 
Q 42.578125 51.265625 45.40625 46.390625 
z
M 14.796875 27.296875 
Q 14.796875 17.390625 18.875 11.75 
Q 22.953125 6.109375 30.078125 6.109375 
Q 37.203125 6.109375 41.296875 11.75 
Q 45.40625 17.390625 45.40625 27.296875 
Q 45.40625 37.203125 41.296875 42.84375 
Q 37.203125 48.484375 30.078125 48.484375 
Q 22.953125 48.484375 18.875 42.84375 
Q 14.796875 37.203125 14.796875 27.296875 
z
" id="DejaVuSans-100"/>
      <path d="M 44.28125 53.078125 
L 44.28125 44.578125 
Q 40.484375 46.53125 36.375 47.5 
Q 32.28125 48.484375 27.875 48.484375 
Q 21.1875 48.484375 17.84375 46.4375 
Q 14.5 44.390625 14.5 40.28125 
Q 14.5 37.15625 16.890625 35.375 
Q 19.28125 33.59375 26.515625 31.984375 
L 29.59375 31.296875 
Q 39.15625 29.25 43.1875 25.515625 
Q 47.21875 21.78125 47.21875 15.09375 
Q 47.21875 7.46875 41.1875 3.015625 
Q 35.15625 -1.421875 24.609375 -1.421875 
Q 20.21875 -1.421875 15.453125 -0.5625 
Q 10.6875 0.296875 5.421875 2 
L 5.421875 11.28125 
Q 10.40625 8.6875 15.234375 7.390625 
Q 20.0625 6.109375 24.8125 6.109375 
Q 31.15625 6.109375 34.5625 8.28125 
Q 37.984375 10.453125 37.984375 14.40625 
Q 37.984375 18.0625 35.515625 20.015625 
Q 33.0625 21.96875 24.703125 23.78125 
L 21.578125 24.515625 
Q 13.234375 26.265625 9.515625 29.90625 
Q 5.8125 33.546875 5.8125 39.890625 
Q 5.8125 47.609375 11.28125 51.796875 
Q 16.75 56 26.8125 56 
Q 31.78125 56 36.171875 55.265625 
Q 40.578125 54.546875 44.28125 53.078125 
z
" id="DejaVuSans-115"/>
      <path d="M 8.5 21.578125 
L 8.5 54.6875 
L 17.484375 54.6875 
L 17.484375 21.921875 
Q 17.484375 14.15625 20.5 10.265625 
Q 23.53125 6.390625 29.59375 6.390625 
Q 36.859375 6.390625 41.078125 11.03125 
Q 45.3125 15.671875 45.3125 23.6875 
L 45.3125 54.6875 
L 54.296875 54.6875 
L 54.296875 0 
L 45.3125 0 
L 45.3125 8.40625 
Q 42.046875 3.421875 37.71875 1 
Q 33.40625 -1.421875 27.6875 -1.421875 
Q 18.265625 -1.421875 13.375 4.4375 
Q 8.5 10.296875 8.5 21.578125 
z
M 31.109375 56 
z
" id="DejaVuSans-117"/>
      <path d="M 54.890625 33.015625 
L 54.890625 0 
L 45.90625 0 
L 45.90625 32.71875 
Q 45.90625 40.484375 42.875 44.328125 
Q 39.84375 48.1875 33.796875 48.1875 
Q 26.515625 48.1875 22.3125 43.546875 
Q 18.109375 38.921875 18.109375 30.90625 
L 18.109375 0 
L 9.078125 0 
L 9.078125 54.6875 
L 18.109375 54.6875 
L 18.109375 46.1875 
Q 21.34375 51.125 25.703125 53.5625 
Q 30.078125 56 35.796875 56 
Q 45.21875 56 50.046875 50.171875 
Q 54.890625 44.34375 54.890625 33.015625 
z
" id="DejaVuSans-110"/>
     </defs>
     <g transform="translate(79.828125 23.798437)scale(0.1 -0.1)">
      <use xlink:href="#DejaVuSans-112"/>
      <use x="63.476562" xlink:href="#DejaVuSans-114"/>
      <use x="102.339844" xlink:href="#DejaVuSans-111"/>
      <use x="163.521484" xlink:href="#DejaVuSans-98"/>
      <use x="226.998047" xlink:href="#DejaVuSans-97"/>
      <use x="288.277344" xlink:href="#DejaVuSans-98"/>
      <use x="351.753906" xlink:href="#DejaVuSans-105"/>
      <use x="379.537109" xlink:href="#DejaVuSans-108"/>
      <use x="407.320312" xlink:href="#DejaVuSans-105"/>
      <use x="435.103516" xlink:href="#DejaVuSans-116"/>
      <use x="474.3125" xlink:href="#DejaVuSans-121"/>
      <use x="533.492188" xlink:href="#DejaVuSans-32"/>
      <use x="565.279297" xlink:href="#DejaVuSans-100"/>
      <use x="628.755859" xlink:href="#DejaVuSans-105"/>
      <use x="656.539062" xlink:href="#DejaVuSans-115"/>
      <use x="708.638672" xlink:href="#DejaVuSans-116"/>
      <use x="747.847656" xlink:href="#DejaVuSans-114"/>
      <use x="788.960938" xlink:href="#DejaVuSans-105"/>
      <use x="816.744141" xlink:href="#DejaVuSans-98"/>
      <use x="880.220703" xlink:href="#DejaVuSans-117"/>
      <use x="943.599609" xlink:href="#DejaVuSans-116"/>
      <use x="982.808594" xlink:href="#DejaVuSans-105"/>
      <use x="1010.591797" xlink:href="#DejaVuSans-111"/>
      <use x="1071.773438" xlink:href="#DejaVuSans-110"/>
     </g>
    </g>
    <g id="patch_208">
     <path d="M 51.828125 38.476562 
L 71.828125 38.476562 
L 71.828125 31.476562 
L 51.828125 31.476562 
z
" style="fill:#1f77b4;"/>
    </g>
    <g id="text_19">
     <!-- histogram -->
     <defs>
      <path d="M 54.890625 33.015625 
L 54.890625 0 
L 45.90625 0 
L 45.90625 32.71875 
Q 45.90625 40.484375 42.875 44.328125 
Q 39.84375 48.1875 33.796875 48.1875 
Q 26.515625 48.1875 22.3125 43.546875 
Q 18.109375 38.921875 18.109375 30.90625 
L 18.109375 0 
L 9.078125 0 
L 9.078125 75.984375 
L 18.109375 75.984375 
L 18.109375 46.1875 
Q 21.34375 51.125 25.703125 53.5625 
Q 30.078125 56 35.796875 56 
Q 45.21875 56 50.046875 50.171875 
Q 54.890625 44.34375 54.890625 33.015625 
z
" id="DejaVuSans-104"/>
      <path d="M 45.40625 27.984375 
Q 45.40625 37.75 41.375 43.109375 
Q 37.359375 48.484375 30.078125 48.484375 
Q 22.859375 48.484375 18.828125 43.109375 
Q 14.796875 37.75 14.796875 27.984375 
Q 14.796875 18.265625 18.828125 12.890625 
Q 22.859375 7.515625 30.078125 7.515625 
Q 37.359375 7.515625 41.375 12.890625 
Q 45.40625 18.265625 45.40625 27.984375 
z
M 54.390625 6.78125 
Q 54.390625 -7.171875 48.1875 -13.984375 
Q 42 -20.796875 29.203125 -20.796875 
Q 24.46875 -20.796875 20.265625 -20.09375 
Q 16.0625 -19.390625 12.109375 -17.921875 
L 12.109375 -9.1875 
Q 16.0625 -11.328125 19.921875 -12.34375 
Q 23.78125 -13.375 27.78125 -13.375 
Q 36.625 -13.375 41.015625 -8.765625 
Q 45.40625 -4.15625 45.40625 5.171875 
L 45.40625 9.625 
Q 42.625 4.78125 38.28125 2.390625 
Q 33.9375 0 27.875 0 
Q 17.828125 0 11.671875 7.65625 
Q 5.515625 15.328125 5.515625 27.984375 
Q 5.515625 40.671875 11.671875 48.328125 
Q 17.828125 56 27.875 56 
Q 33.9375 56 38.28125 53.609375 
Q 42.625 51.21875 45.40625 46.390625 
L 45.40625 54.6875 
L 54.390625 54.6875 
z
" id="DejaVuSans-103"/>
      <path d="M 52 44.1875 
Q 55.375 50.25 60.0625 53.125 
Q 64.75 56 71.09375 56 
Q 79.640625 56 84.28125 50.015625 
Q 88.921875 44.046875 88.921875 33.015625 
L 88.921875 0 
L 79.890625 0 
L 79.890625 32.71875 
Q 79.890625 40.578125 77.09375 44.375 
Q 74.3125 48.1875 68.609375 48.1875 
Q 61.625 48.1875 57.5625 43.546875 
Q 53.515625 38.921875 53.515625 30.90625 
L 53.515625 0 
L 44.484375 0 
L 44.484375 32.71875 
Q 44.484375 40.625 41.703125 44.40625 
Q 38.921875 48.1875 33.109375 48.1875 
Q 26.21875 48.1875 22.15625 43.53125 
Q 18.109375 38.875 18.109375 30.90625 
L 18.109375 0 
L 9.078125 0 
L 9.078125 54.6875 
L 18.109375 54.6875 
L 18.109375 46.1875 
Q 21.1875 51.21875 25.484375 53.609375 
Q 29.78125 56 35.6875 56 
Q 41.65625 56 45.828125 52.96875 
Q 50 49.953125 52 44.1875 
z
" id="DejaVuSans-109"/>
     </defs>
     <g transform="translate(79.828125 38.476562)scale(0.1 -0.1)">
      <use xlink:href="#DejaVuSans-104"/>
      <use x="63.378906" xlink:href="#DejaVuSans-105"/>
      <use x="91.162109" xlink:href="#DejaVuSans-115"/>
      <use x="143.261719" xlink:href="#DejaVuSans-116"/>
      <use x="182.470703" xlink:href="#DejaVuSans-111"/>
      <use x="243.652344" xlink:href="#DejaVuSans-103"/>
      <use x="307.128906" xlink:href="#DejaVuSans-114"/>
      <use x="348.242188" xlink:href="#DejaVuSans-97"/>
      <use x="409.521484" xlink:href="#DejaVuSans-109"/>
     </g>
    </g>
   </g>
  </g>
 </g>
 <defs>
  <clipPath id="p73d2637f46">
   <rect height="217.44" width="334.8" x="42.828125" y="7.2"/>
  </clipPath>
 </defs>
</svg>
